<?xml version="1.0" encoding="UTF-8"?>
<svg width="874.67" height="649.97" clip-rule="evenodd" fill-rule="evenodd" image-rendering="optimizeQuality" shape-rendering="geometricPrecision" text-rendering="geometricPrecision" version="1.1" viewBox="0 0 874.67 649.97" xmlns="http://www.w3.org/2000/svg">
 <title>cutethulu</title>
 <g transform="translate(-70.975 -197.48)">
  <path d="m876.5 572.5c1.585 0.974 2.585 2.474 3 4.5 11.328 1.004 16.161-4.163 14.5-15.5-1.767-3.586-3.267-7.252-4.5-11-0.214-2.442 0.786-4.108 3-5-0.011 2.047-0.344 4.047-1 6 9.91 26.374 1.91 45.541-24 57.5-4.918 1.596-9.918 2.763-15 3.5-16.267 0.633-30.933-3.867-44-13.5-23.26-17.667-38.093-40.834-44.5-69.5-0.694-4.054-0.527-8.054 0.5-12 13.467-91.099-12.866-168.6-79-232.5-51.257-42.927-110.59-64.427-178-64.5-34.131 0.12-67.131 6.12-99 18-32.442 10.878-61.109 27.878-86 51-58.747 55.871-86.247 124.54-82.5 206 1.395 8.036 2.895 16.036 4.5 24 0.963 4.296 1.129 8.629 0.5 13-6.626 31.779-23.126 56.946-49.5 75.5-15.026 8.712-31.026 11.212-48 7.5-10.561-4.734-17.395-12.734-20.5-24-1.423-9.964-1.756-19.964-1-30 0.934-1.358 1.768-2.692 2.5-4-0.767 3.805-1.433 7.639-2 11.5 0.909 10.621 6.242 13.788 16 9.5 0.987 5.831 3.321 11.331 7 16.5 1.333 0.667 2.667 1.333 4 2 19.502 1.836 35.335-4.997 47.5-20.5 9.026-11.717 15.692-24.717 20-39-17.657-105.7 12.176-195.2 89.5-268.5 55.798-47.031 120.46-70.864 194-71.5 60.824-0.615 116.82 15.219 168 47.5 83.66 62.17 123.16 145.67 118.5 250.5-1.275 9.986-2.442 19.986-3.5 30 4.322 25.811 17.322 45.978 39 60.5 13.031 7.758 26.364 8.425 40 2 4.975-4.118 8.308-9.285 10-15.5z" fill="#21c7f7"/>
  <path d="m764.5 517.5c-3.129 4.903-6.296 9.903-9.5 15-4.798 4.964-10.298 8.964-16.5 12-1.662 2.152-3.662 3.818-6 5-3.235 1.831-4.901 4.664-5 8.5 0.593 2.87 1.259 5.703 2 8.5-1.676-0.683-2.343-2.017-2-4-0.728-2.579-1.228-5.246-1.5-8-0.219 1.438-0.719 2.771-1.5 4-3.107 2.513-6.107 3.18-9 2-1.299 0.59-2.132 1.59-2.5 3-0.915-0.828-1.581-1.828-2-3-0.677 2.189-1.844 2.522-3.5 1-0.642 3.297-1.809 3.631-3.5 1-1.804 1.919-3.804 2.252-6 1-1.032 1.645-2.199 1.978-3.5 1-1.333 2.667-2.667 2.667-4 0-1.299 0.59-2.132 1.59-2.5 3-1.333-0.667-2.333-1.667-3-3-2.489 3.403-4.655 3.403-6.5 0-2.241 0.532-3.741 1.865-4.5 4-2.682 0.455-5.515 0.455-8.5 0-1.63 1.398-3.464 2.398-5.5 3-2.732 0.316-5.232-0.017-7.5-1-2.114 0.534-3.948 1.534-5.5 3-1.751-0.674-3.417-1.007-5-1-0.875 2.013-2.209 2.013-4 0-0.333 0.667-0.667 1.333-1 2-1.645-0.193-3.479-0.36-5.5-0.5l-1.5-1.5c-2.2 2.331-4.2 2.331-6 0-0.915 0.828-1.581 1.828-2 3-0.691-2.391-1.691-2.391-3 0l-2-2c-1.143 3.415-2.81 3.749-5 1-0.249 1.124-0.749 2.124-1.5 3-0.411-0.762-0.577-1.762-0.5-3-1.559 3.273-3.726 5.94-6.5 8-0.626-7.907-2.126-15.574-4.5-23-6.431-4.995-9.931-3.328-10.5 5-0.828 6.153-1.328 12.487-1.5 19-0.333-2.667-0.667-5.333-1-8-1.114 3.799-2.447 3.799-4 0-0.584 6.008-1.25 11.342-2 16-0.667-1.333-1.333-1.333-2 0-0.915-0.828-1.581-1.828-2-3-1.154 1.243-2.488 2.243-4 3-4.727-0.072-9.727-0.405-15-1-0.75 0.626-1.584 1.126-2.5 1.5l1 1c-1.159 1.827-2.492 3.493-4 5 0.333 1 0.667 2 1 3-1.932 1.352-3.266 3.185-4 5.5 0.525 0.692 1.192 1.192 2 1.5-1.553 1.097-2.886 2.43-4 4-0.561 1.566 0.106 2.899 2 4-1.217 1.648-2.05 3.481-2.5 5.5-0.308-0.808-0.808-1.475-1.5-2-0.333 0.667-0.667 1.333-1 2-1.193-2.027-2.86-3.527-5-4.5 0.667-0.333 1.333-0.667 2-1-1.749-3.525-3.916-4.025-6.5-1.5l-1-1c-0.333 1-0.667 2-1 3-1-0.333-2-0.667-3-1-0.617 0.949-0.451 1.782 0.5 2.5-1.201 0.903-2.035 2.069-2.5 3.5-0.333-1-0.667-2-1-3-1.049 1.017-2.216 1.184-3.5 0.5 0.951-0.718 1.117-1.551 0.5-2.5-1.984-1.803-3.984-2.803-6-3-0.333 0.667-0.667 1.333-1 2-0.88-6.306-1.713-12.806-2.5-19.5 1.035-1.507 0.868-3.007-0.5-4.5-0.692 0.525-1.192 1.192-1.5 2 0.985 1.598 1.151 3.265 0.5 5-0.278-0.916-0.778-1.582-1.5-2 0.103-6.868-2.231-12.701-7-17.5-3.161-0.203-5.328 1.297-6.5 4.5-2.11 13.505-1.943 26.839 0.5 40v14c0.165 3.018-2e-3 6.018-0.5 9-1.163-1.785-1.83-3.785-2-6-1 2.667-2 5.333-3 8-2.32-1.595-4.82-2.928-7.5-4 0.561 1.566-0.106 2.899-2 4-0.751-0.876-1.251-1.876-1.5-3-1.938 1.36-3.604 1.027-5-1-0.249 1.124-0.749 2.124-1.5 3-0.925-1.141-1.759-1.141-2.5 0-3.028-10.3-6.028-20.966-9-32-1.112-2.778-2.945-4.945-5.5-6.5 2.667-0.667 2.667-1.333 0-2 1.154-0.914 0.987-1.747-0.5-2.5-0.333 1-0.667 2-1 3-1.016-1.134-1.683-0.801-2 1-1.333-1.333-2.667-1.333-4 0-1.098-1.467-2.598-2.301-4.5-2.5 0.119-1.281-0.381-2.448-1.5-3.5-0.187 1.845-1.02 3.511-2.5 5-1.386-2.144-2.886-3.477-4.5-4-1.833 0.167-3.667 0.333-5.5 0.5 0.367-1.757-0.466-3.257-2.5-4.5-1 0.333-2 0.667-3 1-1.125-11.745-1.958-23.411-2.5-35-0.031-6.202-3.031-9.035-9-8.5-0.711 1.255-1.544 2.421-2.5 3.5-2.743 12.853-3.909 25.853-3.5 39-0.667 0-1-0.333-1-1 0.147-4.714-0.186-9.381-1-14 1.209-1.935 1.042-3.935-0.5-6-0.923 1.259-1.757 2.592-2.5 4-0.743-1.408-1.577-2.741-2.5-4-0.519 1.016-1.353 1.682-2.5 2-1.455-0.89-2.789-0.89-4 0-1.598-2.473-3.098-2.473-4.5 0-2.892-0.894-5.226-2.56-7-5-5.892 2.595-11.892 1.928-18-2-1 0.667-2 1.333-3 2-1.791-3.327-3.957-3.66-6.5-1-2.937-1.621-5.77-2.621-8.5-3l-2 2c-1.098-0.884-1.598-1.884-1.5-3-1.316 2.528-2.483 2.528-3.5 0-0.414 0.457-0.914 0.791-1.5 1-5.409-1.139-9.909-2.806-13.5-5-0.833 0.167-1.667 0.333-2.5 0.5 0.951 0.718 1.117 1.551 0.5 2.5-0.915-0.828-1.581-1.828-2-3-2.015-0.467-4.182-0.467-6.5 0-3.594-2.332-7.261-3.665-11-4-0.411 0.762-0.577 1.762-0.5 3-1.421-3.122-3.087-3.456-5-1-0.739-1.074-1.739-1.741-3-2-1.652 0.36-3.318 0.693-5 1-2-5.333-4-5.333-6 0-0.198-1.882-0.698-3.548-1.5-5-0.885-3.546-2.885-6.212-6-8-10.212-6.374-19.045-14.374-26.5-24-1.411-2.15-2.245-4.484-2.5-7h-3c-1.605-7.964-3.105-15.964-4.5-24-3.747-81.462 23.753-150.13 82.5-206 0.996-0.086 1.829 0.248 2.5 1 7.662 19.747 21.828 31.913 42.5 36.5 17.721 2.325 34.721-8e-3 51-7 18.281-10.397 26.115-26.231 23.5-47.5-2.206-12.256-8.706-21.422-19.5-27.5-4.534-2.667-9.2-4.834-14-6.5 31.869-11.88 64.869-17.88 99-18 67.41 0.073 126.74 21.573 178 64.5 66.134 63.901 92.467 141.4 79 232.5z" fill="#f9f9f9"/>
  <path d="m408.5 238.5c4.8 1.666 9.466 3.833 14 6.5 10.794 6.078 17.294 15.244 19.5 27.5 2.615 21.269-5.219 37.103-23.5 47.5-16.279 6.992-33.279 9.325-51 7-20.672-4.587-34.838-16.753-42.5-36.5-0.671-0.752-1.504-1.086-2.5-1 24.891-23.122 53.558-40.122 86-51z" fill="#c0f7f9"/>
  <path d="m176.5 287.5c2.865-0.445 5.365 0.222 7.5 2 3.101 6.736 5.435 13.736 7 21 4.327 9.749 11.827 14.915 22.5 15.5 4.036 4.675 3.703 9.175-1 13.5-12.901 3.067-21.068 11.067-24.5 24-1.335 4.683-2.669 9.35-4 14-3.333 4-6.667 4-10 0-2.253-8.596-5.253-16.929-9-25-5.541-5.857-12.041-10.357-19.5-13.5-4.256-4.385-3.923-8.385 1-12 7.774-1.257 13.941-5.09 18.5-11.5 3.408-6.628 5.741-13.628 7-21 1.012-2.702 2.512-5.035 4.5-7z" fill="#f093b2"/>
  <path d="m178.5 318.5c3.861 5.535 8.527 10.535 14 15-6.447 3.62-10.947 8.953-13.5 16-2.641-6.979-7.141-12.479-13.5-16.5 6.302-3.132 10.636-7.966 13-14.5z" fill="#f9f6f7"/>
  <path d="m838.5 283.5c2.436-0.183 4.603 0.484 6.5 2 2.524 11.045 7.19 21.045 14 30 5.143 6.157 11.643 10.157 19.5 12 4.199 5.663 3.532 10.829-2 15.5-13.271 3.268-22.104 11.434-26.5 24.5-1.135 4.405-2.468 8.738-4 13-3.619 2.843-6.952 2.51-10-1-2.906-11.892-8.739-22.058-17.5-30.5-5.723-2.517-11.39-5.183-17-8-4.632-4.133-4.966-8.467-1-13 9.233-2.034 17.066-6.534 23.5-13.5 5.296-7.49 8.63-15.823 10-25 1.332-2.16 2.832-4.16 4.5-6z" fill="#f09ab4"/>
  <path d="m839.5 309.5c3.299 7.049 7.966 13.216 14 18.5 2.811 1.825 5.811 3.158 9 4-9.591 5.091-16.591 12.591-21 22.5-2.624-5.085-5.624-9.918-9-14.5-4.429-2.881-9.096-5.215-14-7 11.402-3.902 18.402-11.735 21-23.5z" fill="#f9f7f8"/>
  <path d="m367.5 356.5c18.601 1.955 31.934 11.288 40 28 9.884 21.073 12.551 43.073 8 66-5.028 24.355-19.362 40.022-43 47-12.848 1.397-24.848-1.103-36-7.5-4.212-2.934-8.212-6.101-12-9.5-9.477-11.631-15.144-24.964-17-40-0.127-11.352 0.206-22.685 1-34 3.376-14.251 10.042-26.751 20-37.5 2.964-2.81 6.298-4.976 10-6.5 9.162-4.299 18.829-6.299 29-6z" fill="#121256"/>
  <path d="m690.5 384.5c7.439 15.771 10.773 32.438 10 50-0.658 18.632-7.324 34.632-20 48-9.613 9.636-21.28 14.636-35 15-8.944-1.07-17.61-3.404-26-7-7.601-4.433-13.767-10.433-18.5-18-4.662-8.156-7.829-16.822-9.5-26-3.177-20.722-0.843-40.722 7-60 10.702-22.856 28.702-33.023 54-30.5 17.272 3.459 29.939 12.959 38 28.5z" fill="#121255"/>
  <path d="m367.5 356.5c-10.171-0.299-19.838 1.701-29 6 8.754-6.589 18.42-8.589 29-6z" fill="#1a1b46"/>
  <path d="m338.5 382.5c11.158-0.67 18.325 4.33 21.5 15 1.307 9.078-1.193 16.912-7.5 23.5-13.529 7.316-23.029 3.816-28.5-10.5-1.717-12.904 3.116-22.237 14.5-28z" fill="#f5f5f7"/>
  <path d="m620.5 382.5c16.464 0.235 23.631 8.569 21.5 25-3.658 14.077-12.491 19.244-26.5 15.5-11.038-9.154-12.872-19.987-5.5-32.5 2.94-3.537 6.44-6.203 10.5-8z" fill="#f6f6f7"/>
  <path d="m690.5 384.5c5.544 8.788 9.044 18.455 10.5 29 0.821 7.179 0.655 14.179-0.5 21 0.773-17.562-2.561-34.229-10-50z" fill="#1e1f48"/>
  <path d="m308.5 406.5c-0.794 11.315-1.127 22.648-1 34-1.507-3.891-2.174-8.058-2-12.5 0.211-7.413 1.211-14.58 3-21.5z" fill="#24244d"/>
  <path d="m407.5 384.5c5.75 9.077 9.25 19.077 10.5 30 0.667 8.333 0.667 16.667 0 25-0.108 3.965-0.941 7.632-2.5 11 4.551-22.927 1.884-44.927-8-66z" fill="#141740"/>
  <path d="m598.5 386.5c-7.843 19.278-10.177 39.278-7 60-5.686-20.928-3.353-40.928 7-60z" fill="#20204b"/>
  <path d="m324.5 480.5c3.788 3.399 7.788 6.566 12 9.5 11.152 6.397 23.152 8.897 36 7.5 5.931 13.719 3.265 25.552-8 35.5-13.421 8.802-28.254 12.969-44.5 12.5-17.639 0.485-34.139-3.348-49.5-11.5-7.366-5.826-11.366-13.326-12-22.5 0.729-9.253 5.062-16.419 13-21.5 7.466-4.266 15.466-6.933 24-8 9.842-0.17 19.509-0.67 29-1.5z" fill="#f9c8ee"/>
  <path d="m680.5 482.5c9.47-8e-3 19.137 0.159 29 0.5 12.378 1.939 22.878 7.439 31.5 16.5 7.492 13.542 5.326 25.376-6.5 35.5-17.657 10.16-36.657 13.826-57 11-11.467-2.238-22.134-6.405-32-12.5-11.151-10.119-13.818-22.119-8-36h8c13.72-0.364 25.387-5.364 35-15z" fill="#f9c8ee"/>
  <path d="m478.5 443.5c2.357-0.163 4.69 3e-3 7 0.5 8.237 5.526 17.237 7.526 27 6 5.808-2.324 11.641-4.491 17.5-6.5 7.14 1.229 10.807 5.563 11 13 1.924 18.047-1.409 35.047-10 51-10.449 15.599-23.949 19.099-40.5 10.5-14.285-14.098-20.618-31.264-19-51.5-1.466-8.927 0.867-16.594 7-23z" fill="#151252"/>
  <path d="m529.5 479.5c-0.447 13.062-5.781 23.562-16 31.5-9.404 3.388-16.904 0.888-22.5-7.5-4.181-6.386-6.681-13.386-7.5-21-0.157-1.373 0.01-2.707 0.5-4 15.362-10.773 30.529-10.439 45.5 1z" fill="#f184af"/>
  <path d="m529.5 479.5c-14.971-11.439-30.138-11.773-45.5-1-0.49 1.293-0.657 2.627-0.5 4-1.479-4.409-2.146-9.076-2-14 0.167-3 0.333-6 0.5-9 0.118-2.073 1.118-3.407 3-4 9.639 4.74 19.806 6.24 30.5 4.5 4.569-1.968 9.236-3.301 14-4 2.538 7.904 2.538 15.737 0 23.5z" fill="#cb5793"/>
  <path d="m619.5 490.5c8.39 3.596 17.056 5.93 26 7h-8c-6.714-0.788-12.714-3.121-18-7z" fill="#171641"/>
  <path d="m142.5 578.5c-9.758 4.288-15.091 1.121-16-9.5 0.567-3.861 1.233-7.695 2-11.5 0.435-3.338-0.232-6.338-2-9-5.951-5.089-12.285-5.255-19-0.5-15.457 14.718-20.624 32.551-15.5 53.5 2.247 7.219 4.247 14.552 6 22 2.425 2.553 4.592 5.22 6.5 8 5.41 17.949 16.41 31.449 33 40.5 20.798 10.127 42.798 14.96 66 14.5-10.087 2.529-20.087 5.695-30 9.5-5.058 4.339-7.724 9.839-8 16.5-12.059-1.812-22.225 1.855-30.5 11-6.628 9.534-5.461 18.034 3.5 25.5 12.461 8.112 26.128 10.779 41 8 6.1-0.905 12.1-2.239 18-4 7.825-3.249 15.825-5.915 24-8 13.571-7.235 26.905-14.901 40-23 5.923-1.304 11.923-1.804 18-1.5-1.952 2.242-4.285 2.576-7 1-0.149 1.052 0.017 2.052 0.5 3 0.893-1.211 1.726-1.211 2.5 0-3.262 0.554-4.262 2.22-3 5-2.528 1.017-2.528 2.184 0 3.5-0.667 0.333-1.333 0.667-2 1 1.079 0.956 2.245 1.789 3.5 2.5-0.046-1.813 0.12-3.479 0.5-5l3 1.5c-1.905 0.826-2.239 1.993-1 3.5 0.978-0.477 1.811-1.143 2.5-2 0.167 0.5 0.333 1 0.5 1.5-0.84 1.171-1.673 2.338-2.5 3.5-0.317-1.801-0.984-2.134-2-1-0.798 1.759-0.631 3.426 0.5 5 3.293 3.639 6.96 6.806 11 9.5 0.752 0.671 1.086 1.504 1 2.5-6.438-4.593-12.772-9.427-19-14.5-7.886-0.146-13.052 3.688-15.5 11.5-1.771 9.786 0.562 18.452 7 26 11.494 13.064 25.994 20.231 43.5 21.5 21.988 2.674 41.988-2.326 60-15 9.961-9.084 19.127-18.917 27.5-29.5 2.164-4.329 4.331-8.662 6.5-13 3.411-8.569 6.411-17.236 9-26 0.438 1.626 0.772 3.293 1 5-2.052 3.763-3.218 7.763-3.5 12 2.427-1.281 4.927-2.281 7.5-3-0.149 1.052 0.017 2.052 0.5 3 0.17-2.215 0.837-4.215 2-6 0.163 2.176 0.996 4.009 2.5 5.5-0.813 1.314-1.813 2.481-3 3.5 0.346 1.196 0.846 1.196 1.5 0 0.311 2.056 0.811 4.056 1.5 6-0.525 0.692-1.192 1.192-2 1.5 0.752 0.671 1.086 1.504 1 2.5-1.269 4.543-3.103 8.876-5.5 13-3.112 3.274-5.612 6.94-7.5 11-6.096 7.27-12.43 14.437-19 21.5-26.027 24.18-56.694 33.18-92 27-23.537-5.886-41.704-19.052-54.5-39.5-2.918-6.006-4.418-12.339-4.5-19-6.75 2.539-13.417 5.372-20 8.5-17.285 7.325-35.285 10.325-54 9-20.141-2.634-34.307-13.134-42.5-31.5-3.699-20.106 3.135-35.606 20.5-46.5 6.179-2.727 12.513-5.06 19-7-57.319-16.652-85.486-54.819-84.5-114.5 3.3037-24.491 15.804-42.325 37.5-53.5 24.295-5.365 37.628 4.302 40 29-0.799 8.502-2.799 16.669-6 24.5z" fill="#f182b1"/>
  <path d="m727.5 562.5c-1.63 1.526-2.463 3.526-2.5 6-1-1.333-2-2.667-3-4-0.973 2.14-2.473 3.807-4.5 5-0.886-0.825-1.219-1.825-1-3-1.175-0.219-2.175 0.114-3 1-0.729 2.264-1.896 3.597-3.5 4-1.113-1.211-2.28-1.211-3.5 0-1.505-2.631-2.171-2.297-2 1-1.967 0.239-3.801-0.094-5.5-1-1.555 1.646-3.221 1.979-5 1-1.667 1-3.333 2-5 3-0.974-2.378-1.641-2.044-2 1-3.085-2.619-6.252-2.619-9.5 0-2.255-2.188-4.422-1.854-6.5 1-2.19-1.084-3.856-0.417-5 2-0.249-1.124-0.749-2.124-1.5-3-2.272 0.941-4.272 2.274-6 4-1.196-0.346-1.196-0.846 0-1.5-1.266-0.309-2.433-0.809-3.5-1.5-0.283 3.242-1.117 3.576-2.5 1-1.871 1.267-3.704 1.267-5.5 0l-2 2c-1.882 0.897-4.049 0.897-6.5 0-1.622 2.354-3.122 2.354-4.5 0-0.689 0.857-1.522 1.523-2.5 2-1.868-0.446-3.701-0.779-5.5-1-1.933 2.635-3.933 2.302-6-1-1.019 1.187-2.186 2.187-3.5 3-1.196-0.346-1.196-0.846 0-1.5-4.538-0.926-7.872 1.074-10 6l1 1c-1.361 1.584-2.028 3.418-2 5.5-0.553 4.982-0.887 9.982-1 15 0.306 2.885-0.027 5.552-1 8v-35c2.774-2.06 4.941-4.727 6.5-8-0.077 1.238 0.089 2.238 0.5 3 0.751-0.876 1.251-1.876 1.5-3 2.19 2.749 3.857 2.415 5-1l2 2c1.309-2.391 2.309-2.391 3 0 0.419-1.172 1.085-2.172 2-3 1.8 2.331 3.8 2.331 6 0l1.5 1.5c2.021 0.14 3.855 0.307 5.5 0.5 0.333-0.667 0.667-1.333 1-2 1.791 2.013 3.125 2.013 4 0 1.583-7e-3 3.249 0.326 5 1 1.552-1.466 3.386-2.466 5.5-3 2.268 0.983 4.768 1.316 7.5 1 2.036-0.602 3.87-1.602 5.5-3 2.985 0.455 5.818 0.455 8.5 0 0.759-2.135 2.259-3.468 4.5-4 1.845 3.403 4.011 3.403 6.5 0 0.667 1.333 1.667 2.333 3 3 0.368-1.41 1.201-2.41 2.5-3 1.333 2.667 2.667 2.667 4 0 1.301 0.978 2.468 0.645 3.5-1 2.196 1.252 4.196 0.919 6-1 1.691 2.631 2.858 2.297 3.5-1 1.656 1.522 2.823 1.189 3.5-1 0.419 1.172 1.085 2.172 2 3 0.368-1.41 1.201-2.41 2.5-3 2.893 1.18 5.893 0.513 9-2 0.781-1.229 1.281-2.562 1.5-4 0.272 2.754 0.772 5.421 1.5 8z" fill="#f8f2f9"/>
  <path d="m282.5 558.5c0.802 1.452 1.302 3.118 1.5 5 2-5.333 4-5.333 6 0 1.682-0.307 3.348-0.64 5-1 1.261 0.259 2.261 0.926 3 2 1.913-2.456 3.579-2.122 5 1-0.077-1.238 0.089-2.238 0.5-3 3.739 0.335 7.406 1.668 11 4 2.318-0.467 4.485-0.467 6.5 0 0.419 1.172 1.085 2.172 2 3 0.617-0.949 0.451-1.782-0.5-2.5 0.833-0.167 1.667-0.333 2.5-0.5 3.591 2.194 8.091 3.861 13.5 5 0.586-0.209 1.086-0.543 1.5-1 1.017 2.528 2.184 2.528 3.5 0-0.098 1.116 0.402 2.116 1.5 3l2-2c2.73 0.379 5.563 1.379 8.5 3 2.543-2.66 4.709-2.327 6.5 1 1-0.667 2-1.333 3-2 6.108 3.928 12.108 4.595 18 2 1.774 2.44 4.108 4.106 7 5 1.402-2.473 2.902-2.473 4.5 0 1.211-0.89 2.545-0.89 4 0 1.147-0.318 1.981-0.984 2.5-2 0.923 1.259 1.757 2.592 2.5 4 0.743-1.408 1.577-2.741 2.5-4 1.542 2.065 1.709 4.065 0.5 6-1.519 2.114-3.519 3.78-6 5-3.228-1.498-6.561-2.831-10-4-1.529 0.029-2.696 0.696-3.5 2-2.096-1.215-1.929-2.049 0.5-2.5-0.5-0.167-1-0.333-1.5-0.5-2.323 0.311-4.656 0.644-7 1-2.085-1.545-4.252-1.878-6.5-1-1.667-2.667-3.333-2.667-5 0-1.611-0.82-2.278-2.154-2-4-1.831 0.552-3.497 0.552-5 0-0.978 0.477-1.811 1.143-2.5 2-0.667-2.667-1.333-2.667-2 0-2.54-2.468-5.373-3.135-8.5-2-2.173-1.808-4.007-1.808-5.5 0-0.915-0.828-1.581-1.828-2-3-0.333 0.667-0.667 1.333-1 2-1.888-2.422-3.888-2.422-6 0-0.708-2.768-2.208-3.601-4.5-2.5 0.736-3.199-0.097-3.365-2.5-0.5-1.333-2.667-2.667-2.667-4 0-1.185-2.769-3.018-3.769-5.5-3-3.048-1.696-5.881-3.029-8.5-4-0.677 2.189-1.844 2.522-3.5 1-0.751 0.876-1.251 1.876-1.5 3-1.01-2.948-2.843-3.614-5.5-2-1.591-2.486-3.591-3.152-6-2-1.147-0.318-1.981-0.984-2.5-2-0.605 1.981-1.605 2.315-3 1-0.837 6.337-1.503 6.003-2-1-0.608 1.566-1.442 2.9-2.5 4 0.7-4.298 1.033-8.631 1-13z" fill="#f9f2f9"/>
  <path d="m732.5 549.5c1.911 0.074 3.078 1.074 3.5 3 6.184 23.088 15.351 44.755 27.5 65-1.982-0.295-3.982-0.629-6-1 0.525-0.692 1.192-1.192 2-1.5-3.534-4.764-6.701-9.264-9.5-13.5-0.029 2.867-0.862 5.367-2.5 7.5 1.608 0.658 2.775 0.158 3.5-1.5 1.48 2.163 1.48 4.163 0 6l-1-1c-0.402 1.372-0.902 2.705-1.5 4 1.103 0.498 2.103 0.831 3 1-0.333 0.667-0.667 1.333-1 2 0.764 2.461 1.764 4.961 3 7.5-0.873 1.045-1.873 1.878-3 2.5-1.667-4-3.333-8-5-12-4.024-11.01-7.691-22.01-11-33-0.333-1.333-0.667-2.667-1-4-1.131-4.725-2.464-9.392-4-14-0.741-2.797-1.407-5.63-2-8.5 0.099-3.836 1.765-6.669 5-8.5z" fill="#33c1f2"/>
  <path d="m727.5 562.5c-0.343 1.983 0.324 3.317 2 4 1.536 4.608 2.869 9.275 4 14-1.545-0.73-2.378-2.063-2.5-4-0.583 1.502-1.416 2.835-2.5 4-0.882-1.26-1.882-2.426-3-3.5 2.384-2.024 2.551-4.191 0.5-6.5-1.646 1.279-2.813 2.945-3.5 5 0.011-0.941-0.489-1.608-1.5-2-2.799 0.737-2.966 1.57-0.5 2.5-2.731 0.071-5.231-0.096-7.5-0.5-1.431 2.728-3.431 3.395-6 2-3.23 1.279-5.896 2.613-8 4-0.333-0.667-0.667-1.333-1-2-0.718 0.951-1.551 1.117-2.5 0.5 1.196-0.654 1.196-1.154 0-1.5-3.891 0.853-7.557 2.853-11 6-0.411-0.762-0.577-1.762-0.5-3-2.504 4.173-4.171 3.84-5-1-1.067 0.691-2.234 1.191-3.5 1.5 1.2 1.952 0.7 3.452-1.5 4.5-0.667-2.667-1.333-2.667-2 0-2.185-2.498-4.518-2.498-7 0-2.052 0.283-4.219-0.051-6.5-1-1.981-0.063-3.648 0.604-5 2-1.196-0.346-1.196-0.846 0-1.5-1.435 0.311-2.768 0.145-4-0.5-0.012 2.76-1.345 3.26-4 1.5 2.095-0.556 2.262-1.056 0.5-1.5-2.267 0.771-4.1 2.104-5.5 4-2.292-0.809-4.459-1.143-6.5-1-1.194 0.93-2.527 1.597-4 2-0.546-0.789-1.213-1.789-2-3-2.058 0.609-2.891 1.609-2.5 3-2.615-1.779-5.282-2.445-8-2-1.913 0.873-3.747 1.873-5.5 3-0.414-0.457-0.914-0.791-1.5-1-1.999 1.008-3.666 2.341-5 4-0.028-2.082 0.639-3.916 2-5.5l-1-1c2.128-4.926 5.462-6.926 10-6-1.196 0.654-1.196 1.154 0 1.5 1.314-0.813 2.481-1.813 3.5-3 2.067 3.302 4.067 3.635 6 1 1.799 0.221 3.632 0.554 5.5 1 0.978-0.477 1.811-1.143 2.5-2 1.378 2.354 2.878 2.354 4.5 0 2.451 0.897 4.618 0.897 6.5 0l2-2c1.796 1.267 3.629 1.267 5.5 0 1.383 2.576 2.217 2.242 2.5-1 1.067 0.691 2.234 1.191 3.5 1.5-1.196 0.654-1.196 1.154 0 1.5 1.728-1.726 3.728-3.059 6-4 0.751 0.876 1.251 1.876 1.5 3 1.144-2.417 2.81-3.084 5-2 2.078-2.854 4.245-3.188 6.5-1 3.248-2.619 6.415-2.619 9.5 0 0.359-3.044 1.026-3.378 2-1 1.667-1 3.333-2 5-3 1.779 0.979 3.445 0.646 5-1 1.699 0.906 3.533 1.239 5.5 1-0.171-3.297 0.495-3.631 2-1 1.22-1.211 2.387-1.211 3.5 0 1.604-0.403 2.771-1.736 3.5-4 0.825-0.886 1.825-1.219 3-1-0.219 1.175 0.114 2.175 1 3 2.027-1.193 3.527-2.86 4.5-5 1 1.333 2 2.667 3 4 0.037-2.474 0.87-4.474 2.5-6z" fill="#f9ecf9"/>
  <path d="m406.5 584.5c0.814 4.619 1.147 9.286 1 14-1.466 0.847-2.3 2.18-2.5 4-1.835-2.227-1.335-4.06 1.5-5.5l-4.5-4.5c-1.907-0.079-3.907 0.254-6 1-0.333-0.667-0.667-1.333-1-2-0.419 1.172-1.085 2.172-2 3-1.53-1.136-2.863-2.136-4-3-2.741 0.566-5.408 0.899-8 1-0.308-0.808-0.808-1.475-1.5-2 0.205 3.765-0.628 3.765-2.5 0-0.333 0.667-0.667 1.333-1 2-0.419-1.172-1.085-2.172-2-3-2.036 0.602-3.87 1.602-5.5 3 0.561-1.566-0.106-2.899-2-4-0.925 1.141-1.759 1.141-2.5 0-0.333 0.667-0.667 1.333-1 2-0.973-3.516-2.473-3.849-4.5-1-1.959-0.375-3.793-1.041-5.5-2-0.333 0.667-0.667 1.333-1 2-1.667-1-3.333-2-5-3-1.948 2.039-4.115 2.039-6.5 0-1.53 0.14-2.53 0.807-3 2v1c-1.745-1.259-3.412-2.425-5-3.5 0.758-1.364 0.258-2.531-1.5-3.5-0.333 0.667-0.667 1.333-1 2-1.74-1.216-2.74-2.882-3-5-0.308 0.808-0.808 1.475-1.5 2-4.07-2.381-8.237-3.715-12.5-4-1.261 0.259-2.261 0.926-3 2-1.333-2.667-2.667-2.667-4 0-0.333-1-0.667-2-1-3-1.826 1.574-3.993 2.407-6.5 2.5 1.196 0.654 1.196 1.154 0 1.5-2.579-1.388-2.579-2.888 0-4.5-1.496-0.507-2.663-7e-3 -3.5 1.5-1.587-1.227-2.921-0.894-4 1l-1.5-1.5c1.172-0.419 2.172-1.085 3-2-2.178-0.165-4.011 0.668-5.5 2.5-0.233 2.28-1.066 4.28-2.5 6-1-1.333-2-2.667-3-4-1.018 2.094-2.018 4.094-3 6 0.685-4.739 1.685-9.405 3-14 1.058-1.1 1.892-2.434 2.5-4 0.497 7.003 1.163 7.337 2 1 1.395 1.315 2.395 0.981 3-1 0.519 1.016 1.353 1.682 2.5 2 2.409-1.152 4.409-0.486 6 2 2.657-1.614 4.49-0.948 5.5 2 0.249-1.124 0.749-2.124 1.5-3 1.656 1.522 2.823 1.189 3.5-1 2.619 0.971 5.452 2.304 8.5 4 2.482-0.769 4.315 0.231 5.5 3 1.333-2.667 2.667-2.667 4 0 2.403-2.865 3.236-2.699 2.5 0.5 2.292-1.101 3.792-0.268 4.5 2.5 2.112-2.422 4.112-2.422 6 0 0.333-0.667 0.667-1.333 1-2 0.419 1.172 1.085 2.172 2 3 1.493-1.808 3.327-1.808 5.5 0 3.127-1.135 5.96-0.468 8.5 2 0.667-2.667 1.333-2.667 2 0 0.689-0.857 1.522-1.523 2.5-2 1.503 0.552 3.169 0.552 5 0-0.278 1.846 0.389 3.18 2 4 1.667-2.667 3.333-2.667 5 0 2.248-0.878 4.415-0.545 6.5 1 2.344-0.356 4.677-0.689 7-1 0.5 0.167 1 0.333 1.5 0.5-2.429 0.451-2.596 1.285-0.5 2.5 0.804-1.304 1.971-1.971 3.5-2 3.439 1.169 6.772 2.502 10 4 2.481-1.22 4.481-2.886 6-5z" fill="#f9ecf9"/>
  <path d="m733.5 580.5c0.333 1.333 0.667 2.667 1 4-0.617-0.111-1.117-0.444-1.5-1-0.333 1.333-0.667 2.667-1 4-2.228-0.799-3.561 0.201-4 3-0.308-0.808-0.808-1.475-1.5-2-2.37 1.871-4.87 3.538-7.5 5-0.333-0.667-0.667-1.333-1-2-1.823 3.621-4.157 4.287-7 2-1.395 1.315-2.395 0.981-3-1-0.359 3.044-1.026 3.378-2 1-1.012 2.364-2.345 3.698-4 4-1.851-2.281-3.518-2.281-5 0-1.779-0.979-3.445-0.646-5 1-0.667-2.667-1.333-2.667-2 0-1.61 0.37-3.11-0.297-4.5-2-0.978 0.477-1.811 1.143-2.5 2-1.78-1.139-3.614-2.139-5.5-3-0.504-2.86-1.504-5.527-3-8-1.421 3.527-2.088 7.194-2 11-0.722-0.418-1.222-1.084-1.5-2-1.113 1.26-1.28 2.427-0.5 3.5-0.916 0.374-1.75 0.874-2.5 1.5-0.308-0.808-0.808-1.475-1.5-2-0.236 0.747-0.57 1.58-1 2.5-1.372 0.402-2.705 0.902-4 1.5-1.041-2.491-1.874-2.491-2.5 0-0.333-1-0.667-2-1-3-1.57 1.114-2.903 2.447-4 4-1.696-1.222-3.696-1.889-6-2-1.221 0.772-2.221 1.772-3 3-0.991-1.439-2.324-2.439-4-3-3.239 1.852-6.739 2.852-10.5 3 0.149 1.052-0.017 2.052-0.5 3-0.256-3.611-1.922-4.611-5-3-0.945-0.405-1.612-1.072-2-2-1 1.333-2 1.333-3 0-1.459 2.943-3.126 3.276-5 1-0.333 1.333-0.667 2.667-1 4-1.949-3.123-4.115-3.623-6.5-1.5l1 1c-0.727 1.399-1.227 2.899-1.5 4.5-0.333-1.333-0.667-2.667-1-4-0.383 0.556-0.883 0.889-1.5 1 0.113-5.018 0.447-10.018 1-15 1.334-1.659 3.001-2.992 5-4 0.586 0.209 1.086 0.543 1.5 1 1.753-1.127 3.587-2.127 5.5-3 2.718-0.445 5.385 0.221 8 2-0.391-1.391 0.442-2.391 2.5-3 0.787 1.211 1.454 2.211 2 3 1.473-0.403 2.806-1.07 4-2 2.041-0.143 4.208 0.191 6.5 1 1.4-1.896 3.233-3.229 5.5-4 1.762 0.444 1.595 0.944-0.5 1.5 2.655 1.76 3.988 1.26 4-1.5 1.232 0.645 2.565 0.811 4 0.5-1.196 0.654-1.196 1.154 0 1.5 1.352-1.396 3.019-2.063 5-2 2.281 0.949 4.448 1.283 6.5 1 2.482-2.498 4.815-2.498 7 0 0.667-2.667 1.333-2.667 2 0 2.2-1.048 2.7-2.548 1.5-4.5 1.266-0.309 2.433-0.809 3.5-1.5 0.829 4.84 2.496 5.173 5 1-0.077 1.238 0.089 2.238 0.5 3 3.443-3.147 7.109-5.147 11-6 1.196 0.346 1.196 0.846 0 1.5 0.949 0.617 1.782 0.451 2.5-0.5 0.333 0.667 0.667 1.333 1 2 2.104-1.387 4.77-2.721 8-4 2.569 1.395 4.569 0.728 6-2 2.269 0.404 4.769 0.571 7.5 0.5-2.466-0.93-2.299-1.763 0.5-2.5 1.011 0.392 1.511 1.059 1.5 2 0.687-2.055 1.854-3.721 3.5-5 2.051 2.309 1.884 4.476-0.5 6.5 1.118 1.074 2.118 2.24 3 3.5 1.084-1.165 1.917-2.498 2.5-4 0.122 1.937 0.955 3.27 2.5 4z" fill="#f9e4f7"/>
  <path d="m126.5 548.5c-5.486 2.307-9.986 5.973-13.5 11-4.653 7.968-9.32 15.968-14 24-2.26 12.878-1.4267 25.545 2.5 38 1.58 3.159 2.58 6.493 3 10-1.908-2.78-4.075-5.447-6.5-8-1.753-7.448-3.753-14.781-6-22-5.1236-20.949 0.043-38.782 15.5-53.5 6.715-4.755 13.049-4.589 19 0.5z" fill="#f7adcf"/>
  <path d="m764.5 517.5c-1.027 3.946-1.194 7.946-0.5 12 6.407 28.666 21.24 51.833 44.5 69.5 13.067 9.633 27.733 14.133 44 13.5-1.218 0.661-2.551 1.328-4 2 0.167 0.333 0.333 0.667 0.5 1 4.39-0.609 8.89-0.609 13.5 0 0.262 1.478-0.071 2.811-1 4-1.006-0.438-1.006-1.104 0-2-1.333-1.333-2.667-1.333-4 0 1.187 1.019 2.187 2.186 3 3.5-0.949 0.617-1.782 0.451-2.5-0.5-0.694 1.318-1.527 2.151-2.5 2.5 1.288-0.027 2.288 0.973 3 3-1.669 0.122-3.335-0.212-5-1 0.516-2.033-0.15-2.033-2 0 1.211 0.893 1.211 1.726 0 2.5-1.406-1.168-2.572-0.835-3.5 1-0.333-1-0.667-2-1-3-0.743 1.941-0.576 3.774 0.5 5.5-1 0.667-2 0.667-3 0 1.054-1.388 1.22-2.888 0.5-4.5-3.617 0.96-7.284 2.627-11 5-0.617-0.949-0.451-1.782 0.5-2.5-0.667-0.167-1.333-0.333-2-0.5-1.723 1.052-3.39 1.052-5 0-1.248 0.54-2.415 1.207-3.5 2-0.333-0.667-0.667-1.333-1-2-1.113 1.211-2.28 1.211-3.5 0-1.231 1.151-1.231 2.317 0 3.5-0.667 0.333-1.333 0.667-2 1 3.861 1.981 3.861 3.814 0 5.5 0.252-2.469-0.915-4.469-3.5-6-1.602 1.895-3.102 3.895-4.5 6 1.142 1.878 2.142 3.712 3 5.5 0.949 0.617 1.782 0.451 2.5-0.5 0.925 0.547 1.758 1.213 2.5 2-2.798 0.908-5.298 0.241-7.5-2-0.595 3.582-1.929 3.916-4 1l-1.5 1.5c3.226 1.427 6.392 2.927 9.5 4.5 0.914-1.154 1.747-0.987 2.5 0.5 4 0.667 8 0.667 12 0-1.388-0.889-1.222-1.389 0.5-1.5 2.799 0.737 2.966 1.57 0.5 2.5 2.366 0.562 4.699 0.396 7-0.5 3.391 1.217 6.724 2.217 10 3h-13c-4.681-0.169-9.348-0.502-14-1-22.514-5.929-41.18-17.929-56-36-12.149-20.245-21.316-41.912-27.5-65-0.422-1.926-1.589-2.926-3.5-3 2.338-1.182 4.338-2.848 6-5 6.202-3.036 11.702-7.036 16.5-12 3.204-5.097 6.371-10.097 9.5-15z" fill="#b5f2f9"/>
  <path d="m244.5 519.5h3c0.255 2.516 1.089 4.85 2.5 7 7.455 9.626 16.288 17.626 26.5 24-2.235 2.517-3.735 5.517-4.5 9-3.627 25.918-13.627 48.918-30 69-6.467 6.643-13.633 12.309-21.5 17-0.086-0.996 0.248-1.829 1-2.5-1.57-2.862-3.237-5.695-5-8.5-1.932-1.02-3.932-1.187-6-0.5 0.951 0.718 1.117 1.551 0.5 2.5-1.044-1.123-1.71-2.456-2-4l-1 1c-2.071-2.916-3.405-2.582-4 1-0.654-1.196-1.154-1.196-1.5 0 1.662 0.827 2.995 1.993 4 3.5-1.016 1.677-2.016 3.343-3 5 0.649 1.69 0.649 3.523 0 5.5-2.261 0.909-4.428 1.242-6.5 1-0.249-1.124-0.749-2.124-1.5-3-0.169 0.897-0.502 1.897-1 3-0.667-1-1.333-2-2-3-1.822 0.929-3.155 0.262-4-2-0.824 2.248-1.824 2.414-3 0.5 1.391-1.02 2.891-1.853 4.5-2.5 0.532-2.764 1.366-5.43 2.5-8-2.456-2.722-3.123-2.556-2 0.5-1.049 0.492-2.049 0.326-3-0.5-0.692 0.525-1.192 1.192-1.5 2-0.374-0.916-0.874-1.75-1.5-2.5-0.096-1.373 0.07-2.873 0.5-4.5-2.241 1.272-4.408 3.105-6.5 5.5 0.667 0.333 1.333 0.667 2 1-2.939 4.756-4.105 4.589-3.5-0.5-0.333 0.667-0.667 1.333-1 2-0.918-1.726-2.418-3.393-4.5-5 0.667-1 1.333-2 2-3-1.953-1.261-3.953-2.427-6-3.5 1.456-0.423 1.956-1.256 1.5-2.5-1.422 0.094-2.922 0.428-4.5 1-0.033 1.489-0.533 2.822-1.5 4-1.796-1.267-3.629-1.267-5.5 0-1.196-0.346-1.196-0.846 0-1.5 3.454-0.293 3.788-1.626 1-4l1-1c-3.226-2.547-6.893-4.047-11-4.5-0.798-0.457-1.131-1.124-1-2 16.974 3.712 32.974 1.212 48-7.5 26.374-18.554 42.874-43.721 49.5-75.5 0.629-4.371 0.463-8.704-0.5-13z" fill="#b5f2f9"/>
  <path d="m337.5 589.5c-1.154 2.952-2.154 5.952-3 9-1.653-1.105-3.32-1.271-5-0.5 1.154-0.914 0.987-1.747-0.5-2.5-1.676 0.561-3.009 1.561-4 3-1.491-1.504-3.324-2.337-5.5-2.5 1.124-0.249 2.124-0.749 3-1.5-0.167-0.333-0.333-0.667-0.5-1-1.399 0.727-2.899 1.227-4.5 1.5 1.196 0.654 1.196 1.154 0 1.5-1.248-0.54-2.415-1.207-3.5-2-1.558 0.845-2.558 0.179-3-2-0.667 2.667-1.333 2.667-2 0-1.333 2.667-2.667 2.667-4 0-1.743 1.727-3.576 2.394-5.5 2 0.204-1.029-0.296-2.029-1.5-3l-2 2c-2.734-2.641-5.901-3.308-9.5-2-3.488-5.383-5.654-4.716-6.5 2-0.377-1.442-1.21-2.442-2.5-3-0.134-1.792 0.199-3.458 1-5 0.982-1.906 1.982-3.906 3-6 1 1.333 2 2.667 3 4 1.434-1.72 2.267-3.72 2.5-6 1.489-1.832 3.322-2.665 5.5-2.5-0.828 0.915-1.828 1.581-3 2l1.5 1.5c1.079-1.894 2.413-2.227 4-1 0.837-1.507 2.004-2.007 3.5-1.5-2.579 1.612-2.579 3.112 0 4.5 1.196-0.346 1.196-0.846 0-1.5 2.507-0.093 4.674-0.926 6.5-2.5 0.333 1 0.667 2 1 3 1.333-2.667 2.667-2.667 4 0 0.739-1.074 1.739-1.741 3-2 4.263 0.285 8.43 1.619 12.5 4 0.692-0.525 1.192-1.192 1.5-2 0.26 2.118 1.26 3.784 3 5 0.333-0.667 0.667-1.333 1-2 1.758 0.969 2.258 2.136 1.5 3.5 1.588 1.075 3.255 2.241 5 3.5z" fill="#f9e2f6"/>
  <path d="m892.5 544.5c6.324 0.586 12.324 2.42 18 5.5 4.125 4.438 8.125 8.938 12 13.5 2.702 3.44 4.036 7.44 4 12 1.378 14.95-2.122 28.617-10.5 41-3.453 5.121-7.286 9.954-11.5 14.5-16.932 13.628-36.265 21.462-58 23.5-3.276-0.783-6.609-1.783-10-3-2.301 0.896-4.634 1.062-7 0.5 2.466-0.93 2.299-1.763-0.5-2.5-1.722 0.111-1.888 0.611-0.5 1.5-4 0.667-8 0.667-12 0-0.753-1.487-1.586-1.654-2.5-0.5-3.108-1.573-6.274-3.073-9.5-4.5l1.5-1.5c2.071 2.916 3.405 2.582 4-1 2.202 2.241 4.702 2.908 7.5 2-0.742-0.787-1.575-1.453-2.5-2-0.718 0.951-1.551 1.117-2.5 0.5-0.858-1.788-1.858-3.622-3-5.5 1.398-2.105 2.898-4.105 4.5-6 2.585 1.531 3.752 3.531 3.5 6 3.861-1.686 3.861-3.519 0-5.5 0.667-0.333 1.333-0.667 2-1-1.231-1.183-1.231-2.349 0-3.5 1.22 1.211 2.387 1.211 3.5 0 0.333 0.667 0.667 1.333 1 2 1.085-0.793 2.252-1.46 3.5-2 1.61 1.052 3.277 1.052 5 0 0.667 0.167 1.333 0.333 2 0.5-0.951 0.718-1.117 1.551-0.5 2.5 3.716-2.373 7.383-4.04 11-5 0.72 1.612 0.554 3.112-0.5 4.5 1 0.667 2 0.667 3 0-1.076-1.726-1.243-3.559-0.5-5.5 0.333 1 0.667 2 1 3 0.928-1.835 2.094-2.168 3.5-1 1.211-0.774 1.211-1.607 0-2.5 1.85-2.033 2.516-2.033 2 0 1.665 0.788 3.331 1.122 5 1-0.712-2.027-1.712-3.027-3-3 0.973-0.349 1.806-1.182 2.5-2.5 0.718 0.951 1.551 1.117 2.5 0.5-0.813-1.314-1.813-2.481-3-3.5 1.333-1.333 2.667-1.333 4 0-1.006 0.896-1.006 1.562 0 2 0.929-1.189 1.262-2.522 1-4-4.61-0.609-9.11-0.609-13.5 0-0.167-0.333-0.333-0.667-0.5-1 1.449-0.672 2.782-1.339 4-2 5.082-0.737 10.082-1.904 15-3.5 25.91-11.959 33.91-31.126 24-57.5 0.656-1.953 0.989-3.953 1-6v-1z" fill="#adedf9"/>
  <path d="m423.5 565.5c-0.547 19.096 0.453 38.096 3 57-0.617 0.111-1.117 0.444-1.5 1-0.173-4.041-0.673-8.041-1.5-12-1.462 0.971-2.795 0.638-4-1-0.411 0.762-0.577 1.762-0.5 3l-1-1-3 3c-0.113-2.474-1.113-4.474-3-6-0.333 0.667-0.667 1.333-1 2-0.333-2-0.667-4-1-6-0.497 2.646-0.664 5.313-0.5 8-0.838-0.342-1.172-1.008-1-2v-12c-0.409-13.147 0.757-26.147 3.5-39 0.956-1.079 1.789-2.245 2.5-3.5 5.969-0.535 8.969 2.298 9 8.5z" fill="#3fdaf7"/>
  <path d="m603.5 582.5v35 6c-0.838 0.342-1.172 1.008-1 2-0.826-4.816-1.326-9.816-1.5-15-2.428-2.474-2.928-1.974-1.5 1.5-0.753 1.487-1.586 1.654-2.5 0.5-0.981 3.155-2.315 3.488-4 1-0.667 1.333-1.333 1.333-2 0-0.333 0.667-0.667 1.333-1 2-0.333-1.333-0.667-2.667-1-4-0.067 5.598-0.901 10.931-2.5 16 1.753-20.952 2.419-41.952 2-63 0.569-8.328 4.069-9.995 10.5-5 2.374 7.426 3.874 15.093 4.5 23z" fill="#40daf7"/>
  <path d="m407.5 598.5c0 0.667 0.333 1 1 1v12c-1.294-3.723-2.461-3.723-3.5 0-0.833-1-1.667-2-2.5-3-1.878 1.142-3.712 2.142-5.5 3l-3-3c0.613 3.595-0.554 3.929-3.5 1-2.081 0.535-4.247 0.869-6.5 1-0.333-0.667-0.667-1.333-1-2-1.793 2.072-3.96 2.405-6.5 1-1.494 0.209-2.661 0.876-3.5 2-2.123-1.383-3.123-3.05-3-5-1.206 2.56-2.706 3.06-4.5 1.5 0.405-0.945 1.072-1.612 2-2-1.933-0.251-3.766-0.751-5.5-1.5-3.394 0.956-6.894 1.289-10.5 1 0.149-1.052-0.017-2.052-0.5-3l-1 1c-1.667-2.667-3.333-2.667-5 0-1.193-1.478-1.693-2.812-1.5-4-0.668 2.469-1.335 4.802-2 7 0.31-3.213-0.023-6.213-1-9 0.351-3.659-0.649-6.659-3-9 0.47-1.193 1.47-1.86 3-2 2.385 2.039 4.552 2.039 6.5 0 1.667 1 3.333 2 5 3 0.333-0.667 0.667-1.333 1-2 1.707 0.959 3.541 1.625 5.5 2 2.027-2.849 3.527-2.516 4.5 1 0.333-0.667 0.667-1.333 1-2 0.741 1.141 1.575 1.141 2.5 0 1.894 1.101 2.561 2.434 2 4 1.63-1.398 3.464-2.398 5.5-3 0.915 0.828 1.581 1.828 2 3 0.333-0.667 0.667-1.333 1-2 1.872 3.765 2.705 3.765 2.5 0 0.692 0.525 1.192 1.192 1.5 2 2.592-0.101 5.259-0.434 8-1 1.137 0.864 2.47 1.864 4 3 0.915-0.828 1.581-1.828 2-3 0.333 0.667 0.667 1.333 1 2 2.093-0.746 4.093-1.079 6-1l4.5 4.5c-2.835 1.44-3.335 3.273-1.5 5.5 0.2-1.82 1.034-3.153 2.5-4z" fill="#f9e2f5"/>
  <path d="m334.5 598.5c-1.082 5.083-2.416 10.083-4 15-0.996-0.086-1.829 0.248-2.5 1-0.308-0.808-0.808-1.475-1.5-2-1 0.667-2 1.333-3 2-1.196-0.346-1.196-0.846 0-1.5-1.049-0.492-2.049-0.326-3 0.5-0.748-2.795-2.248-3.462-4.5-2-1.301-1.393-2.801-1.893-4.5-1.5 1.054 1.388 1.22 2.888 0.5 4.5-0.605-1.981-1.605-2.315-3-1-1.818-2.145-3.318-2.145-4.5 0-0.498-1.103-0.831-2.103-1-3-0.833 1-1.667 2-2.5 3-1.458-1.247-2.958-1.247-4.5 0-0.692-0.525-1.192-1.192-1.5-2l-1 1c-2.312-0.455-4.312-1.455-6-3l-3 3c-0.329-3.54-2.162-4.706-5.5-3.5 0.808 0.308 1.475 0.808 2 1.5-0.603 1.135-0.936 2.135-1 3-1.63-1.398-3.464-2.398-5.5-3 0.979-1.779 0.646-3.445-1-5-0.374 1.991-1.207 3.658-2.5 5 1.398-6.943 3.398-13.609 6-20 1.29 0.558 2.123 1.558 2.5 3 0.846-6.716 3.012-7.383 6.5-2 3.599-1.308 6.766-0.641 9.5 2l2-2c1.204 0.971 1.704 1.971 1.5 3 1.924 0.394 3.757-0.273 5.5-2 1.333 2.667 2.667 2.667 4 0 0.667 2.667 1.333 2.667 2 0 0.442 2.179 1.442 2.845 3 2 1.085 0.793 2.252 1.46 3.5 2 1.196-0.346 1.196-0.846 0-1.5 1.601-0.273 3.101-0.773 4.5-1.5 0.167 0.333 0.333 0.667 0.5 1-0.876 0.751-1.876 1.251-3 1.5 2.176 0.163 4.009 0.996 5.5 2.5 0.991-1.439 2.324-2.439 4-3 1.487 0.753 1.654 1.586 0.5 2.5 1.68-0.771 3.347-0.605 5 0.5z" fill="#f9d5f1"/>
  <path d="m510.5 596.5c0.607 8.672 1.273 17.338 2 26-0.821 3.141-1.321 6.475-1.5 10-0.761-2.553-1.594-5.053-2.5-7.5 0.333-1 0.667-2 1-3l-1.5-1.5c-1.087 3.065-1.753 6.065-2 9-0.536-2.369-1.703-4.369-3.5-6-0.781 1.229-1.281 2.562-1.5 4-0.769-2.599-0.602-5.099 0.5-7.5l-1.5-1.5c-0.333 3-0.667 6-1 9-0.21-1.558-0.71-2.891-1.5-4-2.443-13.161-2.61-26.495-0.5-40 1.172-3.203 3.339-4.703 6.5-4.5 4.769 4.799 7.103 10.632 7 17.5z" fill="#46dbf7"/>
  <path d="m330.5 613.5c-0.625 3.127-1.625 6.127-3 9-0.617-0.111-1.117-0.444-1.5-1-1.669 1.764-2.836 3.764-3.5 6-2.496-1.08-4.83-2.414-7-4-0.101 7.065-0.267 14.065-0.5 21-1.016 1.134-1.683 0.801-2-1-0.333 1-0.667 2-1 3l-1-1c-0.816 1.323-1.983 1.989-3.5 2-3.028 4.963-6.528 5.296-10.5 1-1.74 1.216-2.74 2.882-3 5-0.249-1.124-0.749-2.124-1.5-3-1.196 0.346-1.196 0.846 0 1.5-0.626 0.75-1.126 1.584-1.5 2.5-0.401-2.021-1.568-3.355-3.5-4-1 1.667-2.333 3-4 4-0.743-1.408-1.577-2.741-2.5-4-0.333 0.667-0.667 1.333-1 2-0.368-1.41-1.201-2.41-2.5-3-1.211 0.774-1.211 1.607 0 2.5-0.5 0.167-1 0.333-1.5 0.5-1.235-1.115-2.402-1.115-3.5 0-0.667-1-1.333-2-2-3-8.941 4.761-10.941 3.261-6-4.5-0.525-0.692-1.192-1.192-2-1.5-0.716 1.982-1.883 3.649-3.5 5-0.278-0.916-0.778-1.582-1.5-2 5.274-11.833 9.941-23.833 14-36 1.293-1.342 2.126-3.009 2.5-5 1.646 1.555 1.979 3.221 1 5 2.036 0.602 3.87 1.602 5.5 3 0.064-0.865 0.397-1.865 1-3-0.525-0.692-1.192-1.192-2-1.5 3.338-1.206 5.171-0.04 5.5 3.5l3-3c1.688 1.545 3.688 2.545 6 3l1-1c0.308 0.808 0.808 1.475 1.5 2 1.542-1.247 3.042-1.247 4.5 0 0.833-1 1.667-2 2.5-3 0.169 0.897 0.502 1.897 1 3 1.182-2.145 2.682-2.145 4.5 0 1.395-1.315 2.395-0.981 3 1 0.72-1.612 0.554-3.112-0.5-4.5 1.699-0.393 3.199 0.107 4.5 1.5 2.252-1.462 3.752-0.795 4.5 2 0.951-0.826 1.951-0.992 3-0.5-1.196 0.654-1.196 1.154 0 1.5 1-0.667 2-1.333 3-2 0.692 0.525 1.192 1.192 1.5 2 0.671-0.752 1.504-1.086 2.5-1z" fill="#f8cceb"/>
  <path d="m734.5 584.5c3.309 10.99 6.976 21.99 11 33-0.897 1.098-1.73 1.098-2.5 0-0.249 1.124-0.749 2.124-1.5 3-0.333-0.167-0.667-0.333-1-0.5 1.249-2.21 1.082-4.376-0.5-6.5-0.535 1.771-1.369 2.104-2.5 1-0.83-1.635-0.997-3.302-0.5-5-1 1.333-2 2.667-3 4-0.333-0.667-0.667-1.333-1-2-1.827 1.159-3.493 2.492-5 4-0.219-1.438-0.719-2.771-1.5-4-4.622 1.722-9.122 4.389-13.5 8-2.321-2.533-4.321-2.199-6 1-0.333-0.667-0.667-1.333-1-2-0.249 1.124-0.749 2.124-1.5 3-0.333-1.333-0.667-2.667-1-4-1.982 1.47-3.648 1.136-5-1-2.633 0.801-4.467 2.467-5.5 5-1.667-1-3-2.333-4-4-0.085 1.585-0.251 2.918-0.5 4-1.582-1.515-2.916-3.181-4-5-2.47-6.846-4.803-13.846-7-21 1.886 0.861 3.72 1.861 5.5 3 0.689-0.857 1.522-1.523 2.5-2 1.39 1.703 2.89 2.37 4.5 2 0.667-2.667 1.333-2.667 2 0 1.555-1.646 3.221-1.979 5-1 1.482-2.281 3.149-2.281 5 0 1.655-0.302 2.988-1.636 4-4 0.974 2.378 1.641 2.044 2-1 0.605 1.981 1.605 2.315 3 1 2.843 2.287 5.177 1.621 7-2 0.333 0.667 0.667 1.333 1 2 2.63-1.462 5.13-3.129 7.5-5 0.692 0.525 1.192 1.192 1.5 2 0.439-2.799 1.772-3.799 4-3 0.333-1.333 0.667-2.667 1-4 0.383 0.556 0.883 0.889 1.5 1z" fill="#f9d5f0"/>
  <path d="m126.5 548.5c1.768 2.662 2.435 5.662 2 9-0.732 1.308-1.566 2.642-2.5 4-0.756 10.036-0.423 20.036 1 30 3.105 11.266 9.939 19.266 20.5 24-0.131 0.876 0.202 1.543 1 2 4.107 0.453 7.774 1.953 11 4.5l-1 1c2.788 2.374 2.454 3.707-1 4-1.196 0.654-1.196 1.154 0 1.5 1.871-1.267 3.704-1.267 5.5 0 0.967-1.178 1.467-2.511 1.5-4 1.578-0.572 3.078-0.906 4.5-1 0.456 1.244-0.044 2.077-1.5 2.5 2.047 1.073 4.047 2.239 6 3.5-0.667 1-1.333 2-2 3 2.082 1.607 3.582 3.274 4.5 5 0.333-0.667 0.667-1.333 1-2-0.605 5.089 0.561 5.256 3.5 0.5-0.667-0.333-1.333-0.667-2-1 2.092-2.395 4.259-4.228 6.5-5.5-0.43 1.627-0.596 3.127-0.5 4.5 0.626 0.75 1.126 1.584 1.5 2.5 0.308-0.808 0.808-1.475 1.5-2 0.951 0.826 1.951 0.992 3 0.5-1.123-3.056-0.456-3.222 2-0.5-1.134 2.57-1.968 5.236-2.5 8-1.609 0.647-3.109 1.48-4.5 2.5 1.176 1.914 2.176 1.748 3-0.5 0.845 2.262 2.178 2.929 4 2 0.667 1 1.333 2 2 3 0.498-1.103 0.831-2.103 1-3 0.751 0.876 1.251 1.876 1.5 3 2.072 0.242 4.239-0.091 6.5-1 0.649-1.977 0.649-3.81 0-5.5 0.984-1.657 1.984-3.323 3-5-1.005-1.507-2.338-2.673-4-3.5 0.346-1.196 0.846-1.196 1.5 0 0.595-3.582 1.929-3.916 4-1l1-1c0.29 1.544 0.956 2.877 2 4 0.617-0.949 0.451-1.782-0.5-2.5 2.068-0.687 4.068-0.52 6 0.5 1.763 2.805 3.43 5.638 5 8.5-0.752 0.671-1.086 1.504-1 2.5-6.867 3.727-13.867 7.06-21 10-19.397 5.448-38.731 5.281-58-0.5-16.231-7.734-29.565-18.9-40-33.5-3.9267-12.455-4.76-25.122-2.5-38 4.68-8.032 9.347-16.032 14-24 3.514-5.027 8.014-8.693 13.5-11z" fill="#adedf9"/>
  <path d="m408.5 611.5c-0.172 0.992 0.162 1.658 1 2v10c-0.817 2.469-1.317 5.135-1.5 8-2.066-2.467-4.566-3.3-7.5-2.5-0.691-1.067-1.191-2.234-1.5-3.5-0.691 2.391-1.691 2.391-3 0l-2 2c-1.113-1.211-2.28-1.211-3.5 0-0.978-0.477-1.811-1.143-2.5-2-0.112 2.947-1.612 4.28-4.5 4 0.149-1.052-0.017-2.052-0.5-3-0.84 2.964-1.84 3.297-3 1-4.352 0.399-9.019 0.732-14 1-0.915-0.828-1.581-1.828-2-3-2.354 0.392-4.854 0.392-7.5 0 0.298-2.836-0.369-3.336-2-1.5l1 1c-0.916 0.374-1.75 0.874-2.5 1.5-1.333-1.333-2.667-1.333-4 0-0.915-0.828-1.581-1.828-2-3l-1 1c-0.333-1-0.667-2-1-3-2.893 5.891-2.726 11.724 0.5 17.5-0.478 1.642-1.478 2.809-3 3.5-0.959-11.95-1.293-23.95-1-36 0.665-2.198 1.332-4.531 2-7-0.193 1.188 0.307 2.522 1.5 4 1.667-2.667 3.333-2.667 5 0l1-1c0.483 0.948 0.649 1.948 0.5 3 3.606 0.289 7.106-0.044 10.5-1 1.734 0.749 3.567 1.249 5.5 1.5-0.928 0.388-1.595 1.055-2 2 1.794 1.56 3.294 1.06 4.5-1.5-0.123 1.95 0.877 3.617 3 5 0.839-1.124 2.006-1.791 3.5-2 2.54 1.405 4.707 1.072 6.5-1 0.333 0.667 0.667 1.333 1 2 2.253-0.131 4.419-0.465 6.5-1 2.946 2.929 4.113 2.595 3.5-1l3 3c1.788-0.858 3.622-1.858 5.5-3 0.833 1 1.667 2 2.5 3 1.039-3.723 2.206-3.723 3.5 0z" fill="#f9d5f1"/>
  <path d="m672.5 598.5v44c-1.008 5.461-2.008 10.794-3 16v-3c1.298-7.247 1.964-14.58 2-22-0.333-3.667-0.667-7.333-1-11-0.154 1.409-0.321 3.076-0.5 5-0.667 2.667-1.333 2.667-2 0-0.402 1.372-0.902 2.705-1.5 4 2.174 1.74 1.507 2.74-2 3-2.233-1.115-4.399-1.115-6.5 0-0.333-0.667-0.667-1.333-1-2l-3 3c-1.964-2.375-3.464-5.041-4.5-8-1.006 0.438-1.006 1.104 0 2-0.667 1.333-1.333 1.333-2 0-0.645-1.232-0.811-2.565-0.5-4-1.205 0.571-2.372 1.238-3.5 2-0.603 1.135-0.936 2.135-1 3-0.925-1.141-1.759-1.141-2.5 0-0.451-2.429-1.285-2.596-2.5-0.5 3.336 1.814 3.503 3.647 0.5 5.5-2.398-1.419-4.898-2.753-7.5-4-0.833 1-1.667 2-2.5 3-0.741-1.141-1.575-1.141-2.5 0-2.701-0.476-3.201-1.476-1.5-3 1.299 0.466 2.799 0.466 4.5 0v-3c-4.438 0.229-8.771 0.229-13 0 0.149-1.052-0.017-2.052-0.5-3-2.829 1.63-5.829 2.964-9 4-0.381 3.777 0.286 3.777 2 0 0.167 0.5 0.333 1 0.5 1.5-2.089 4.946-3.089 10.113-3 15.5 0.165 3.018-2e-3 6.018-0.5 9-0.17-10.841-0.67-21.508-1.5-32v-6c0.973-2.448 1.306-5.115 1-8 0.617-0.111 1.117-0.444 1.5-1 0.333 1.333 0.667 2.667 1 4 0.273-1.601 0.773-3.101 1.5-4.5l-1-1c2.385-2.123 4.551-1.623 6.5 1.5 0.333-1.333 0.667-2.667 1-4 1.874 2.276 3.541 1.943 5-1 1 1.333 2 1.333 3 0 0.388 0.928 1.055 1.595 2 2 3.078-1.611 4.744-0.611 5 3 0.483-0.948 0.649-1.948 0.5-3 3.761-0.148 7.261-1.148 10.5-3 1.676 0.561 3.009 1.561 4 3 0.779-1.228 1.779-2.228 3-3 2.304 0.111 4.304 0.778 6 2 1.097-1.553 2.43-2.886 4-4 0.333 1 0.667 2 1 3 0.626-2.491 1.459-2.491 2.5 0 1.295-0.598 2.628-1.098 4-1.5 0.43-0.92 0.764-1.753 1-2.5 0.692 0.525 1.192 1.192 1.5 2 0.75-0.626 1.584-1.126 2.5-1.5-0.78-1.073-0.613-2.24 0.5-3.5 0.278 0.916 0.778 1.582 1.5 2z" fill="#f9d5f1"/>
  <path d="m745.5 617.5c1.667 4 3.333 8 5 12 1.74 4.479 3.74 8.813 6 13 2.653 5.307 5.32 10.64 8 16 0.065 0.438-0.101 0.772-0.5 1-1.211-3.962-3.211-4.629-6-2-1.808-0.388-3.475-0.388-5 0-1 2.667-2 2.667-3 0-0.635 3.602-1.968 4.268-4 2-1 1.333-2 1.333-3 0-0.807 3.949-1.307 3.949-1.5 0-1.967 0.239-3.801-0.094-5.5-1-1.333 4-2.667 4-4 0-2.096 1.215-1.929 2.049 0.5 2.5-1.249 1.824-2.415 1.657-3.5-0.5l-3 3c-1.183-1.231-2.349-1.231-3.5 0 1.006 0.896 1.006 1.562 0 2-2.157-0.55-4.157-1.217-6-2 3.308 0.526 5.474-0.807 6.5-4 1.662-8.682-0.838-15.848-7.5-21.5-3.888-2.223-7.388-1.723-10.5 1.5-0.499 3.986-0.666 7.986-0.5 12-0.602 2.18-1.935 3.846-4 5 0.173-2.046-0.66-4.046-2.5-6 0.331 1.519 0.164 2.852-0.5 4-0.63-2.25-1.63-4.25-3-6-4.339-10.352-7.673-21.018-10-32 1.084 1.819 2.418 3.485 4 5 0.249-1.082 0.415-2.415 0.5-4 1 1.667 2.333 3 4 4 1.033-2.533 2.867-4.199 5.5-5 1.352 2.136 3.018 2.47 5 1 0.333 1.333 0.667 2.667 1 4 0.751-0.876 1.251-1.876 1.5-3 0.333 0.667 0.667 1.333 1 2 1.679-3.199 3.679-3.533 6-1 4.378-3.611 8.878-6.278 13.5-8 0.781 1.229 1.281 2.562 1.5 4 1.507-1.508 3.173-2.841 5-4 0.333 0.667 0.667 1.333 1 2 1-1.333 2-2.667 3-4-0.497 1.698-0.33 3.365 0.5 5 1.131 1.104 1.965 0.771 2.5-1 1.582 2.124 1.749 4.29 0.5 6.5 0.333 0.167 0.667 0.333 1 0.5 0.751-0.876 1.251-1.876 1.5-3 0.77 1.098 1.603 1.098 2.5 0z" fill="#f9cbeb"/>
  <path d="m763.5 617.5c14.82 18.071 33.486 30.071 56 36-2.847 0.282-5.513 0.282-8 0 0.011 0.941-0.489 1.608-1.5 2-0.574-0.854-1.241-1.854-2-3-0.772 0.145-1.439 0.478-2 1-0.308-0.808-0.808-1.475-1.5-2-1.22 1.211-2.387 1.211-3.5 0-0.684 1.859-1.684 3.526-3 5-0.783-1.933-0.283-3.433 1.5-4.5-1.581-0.707-3.081-1.54-4.5-2.5-0.353 1.172-0.187 2.338 0.5 3.5-0.405 0.945-1.072 1.612-2 2l1 1c-1 0.667-2 0.667-3 0 1.211-0.893 1.211-1.726 0-2.5-0.586 0.209-1.086 0.543-1.5 1-0.423-1.456-1.256-1.956-2.5-1.5 0.561 1.676 1.561 3.009 3 4-1.955 0.953-3.622 2.287-5 4-1.284 0.684-2.451 0.517-3.5-0.5-0.333 0.667-0.667 1.333-1 2-0.182-3.381-1.682-4.381-4.5-3 1.375 3.047 3.708 4.38 7 4 0.237 1.291-0.096 2.291-1 3-10.273-6.273-18.939-14.273-26-24-2.26-4.187-4.26-8.521-6-13 1.127-0.622 2.127-1.455 3-2.5-1.236-2.539-2.236-5.039-3-7.5 0.333-0.667 0.667-1.333 1-2-0.897-0.169-1.897-0.502-3-1 0.598-1.295 1.098-2.628 1.5-4l1 1c1.48-1.837 1.48-3.837 0-6-0.725 1.658-1.892 2.158-3.5 1.5 1.638-2.133 2.471-4.633 2.5-7.5 2.799 4.236 5.966 8.736 9.5 13.5-0.808 0.308-1.475 0.808-2 1.5 2.018 0.371 4.018 0.705 6 1z" fill="#2abff7"/>
  <path d="m307.5 647.5c-7.989 3.701-11.656 1.035-11-8-1.026-8.639 2.474-14.305 10.5-17 5.224 0.921 7.391 4.088 6.5 9.5-0.339 5.855-2.339 11.022-6 15.5z" fill="#f9f9f9"/>
  <path d="m409.5 623.5v6c0.068 8.014 0.401 16.014 1 24 0.166 4.014-1e-3 8.014-0.5 12-0.513-1.027-1.013-2.027-1.5-3-0.304-0.65-0.637-1.317-1-2 2.473-3.753 2.14-7.419-1-11-0.029 1.334-0.863 2.667-2.5 4-2.369-2.169-4.202-4.169-5.5-6-1.401 1.777-2.901 3.444-4.5 5-1.385-1.051-2.385-2.384-3-4-1.753 1.127-3.587 2.127-5.5 3-1.352-1.018-2.352-2.351-3-4 0.193 1.188-0.307 2.522-1.5 4-0.414-0.457-0.914-0.791-1.5-1-0.333 0.667-0.667 1.333-1 2-1.32-1.77-2.82-2.103-4.5-1-2.179-1.235-3.513-2.569-4-4-0.546 0.789-1.213 1.789-2 3-0.75-0.626-1.584-1.126-2.5-1.5 0.027-1.526 0.527-3.026 1.5-4.5-3 0.333-4.667 2-5 5-1.829-1.656-3.163-3.656-4-6-1 1.333-2 1.333-3 0-1.512 2.457-2.846 2.457-4 0-2.454 1.513-4.121 0.846-5-2-0.884 3.153-2.05 3.486-3.5 1 1.522-0.691 2.522-1.858 3-3.5-3.226-5.776-3.393-11.609-0.5-17.5 0.333 1 0.667 2 1 3l1-1c0.419 1.172 1.085 2.172 2 3 1.333-1.333 2.667-1.333 4 0 0.75-0.626 1.584-1.126 2.5-1.5l-1-1c1.631-1.836 2.298-1.336 2 1.5 2.646 0.392 5.146 0.392 7.5 0 0.419 1.172 1.085 2.172 2 3 4.981-0.268 9.648-0.601 14-1 1.16 2.297 2.16 1.964 3-1 0.483 0.948 0.649 1.948 0.5 3 2.888 0.28 4.388-1.053 4.5-4 0.689 0.857 1.522 1.523 2.5 2 1.22-1.211 2.387-1.211 3.5 0l2-2c1.309 2.391 2.309 2.391 3 0 0.309 1.266 0.809 2.433 1.5 3.5 2.934-0.8 5.434 0.033 7.5 2.5 0.183-2.865 0.683-5.531 1.5-8z" fill="#f9ceed"/>
  <path d="m669.5 655.5c-1.592-1.102-2.425-0.435-2.5 2l-2-2c-0.333 2-0.667 4-1 6-0.483-0.948-0.649-1.948-0.5-3h-3c-0.17-1.322 0.163-2.489 1-3.5-0.333-0.167-0.667-0.333-1-0.5-2.646 5.44-4.48 5.107-5.5-1-1.399 0.727-2.899 1.227-4.5 1.5 1.438 0.219 2.771 0.719 4 1.5-0.308 0.808-0.808 1.475-1.5 2-4.126-0.896-8.126-0.896-12 0-0.333 1-0.667 2-1 3-0.547-4.848-1.88-5.182-4-1-0.333-0.667-0.667-1.333-1-2-2.761 1.14-5.594 1.14-8.5 0-0.978 0.477-1.811 1.143-2.5 2-2.133-1.638-4.633-2.471-7.5-2.5 0.862-2.734 1.695-2.901 2.5-0.5l1.5-1.5c-1.526-1.887-3.526-2.887-6-3 1.154-0.914 0.987-1.747-0.5-2.5-1.617 1.036-1.784 2.203-0.5 3.5-2.297 0.018-4.631-0.149-7-0.5-0.208-2.42 0.126-4.753 1-7-0.47-0.963-1.137-0.963-2 0-0.089-5.387 0.911-10.554 3-15.5-0.167-0.5-0.333-1-0.5-1.5-1.714 3.777-2.381 3.777-2 0 3.171-1.036 6.171-2.37 9-4 0.483 0.948 0.649 1.948 0.5 3 4.229 0.229 8.562 0.229 13 0v3c-1.701 0.466-3.201 0.466-4.5 0-1.701 1.524-1.201 2.524 1.5 3 0.925-1.141 1.759-1.141 2.5 0 0.833-1 1.667-2 2.5-3 2.602 1.247 5.102 2.581 7.5 4 3.003-1.853 2.836-3.686-0.5-5.5 1.215-2.096 2.049-1.929 2.5 0.5 0.741-1.141 1.575-1.141 2.5 0 0.064-0.865 0.397-1.865 1-3 1.128-0.762 2.295-1.429 3.5-2-0.311 1.435-0.145 2.768 0.5 4 0.667 1.333 1.333 1.333 2 0-1.006-0.896-1.006-1.562 0-2 1.036 2.959 2.536 5.625 4.5 8l3-3c0.333 0.667 0.667 1.333 1 2 2.101-1.115 4.267-1.115 6.5 0 3.507-0.26 4.174-1.26 2-3 0.598-1.295 1.098-2.628 1.5-4 0.667 2.667 1.333 2.667 2 0 0.179-1.924 0.346-3.591 0.5-5 0.333 3.667 0.667 7.333 1 11-0.036 7.42-0.702 14.753-2 22z" fill="#f9ceed"/>
  <path d="m677.5 595.5c2.197 7.154 4.53 14.154 7 21 2.327 10.982 5.661 21.648 10 32-0.183 2.436 0.484 4.603 2 6.5-1.807 1.236-3.807 1.57-6 1 0.808 0.308 1.475 0.808 2 1.5-0.74 2.655-1.407 5.655-2 9 1.89 0.203 3.39-0.463 4.5-2 1.399 0.727 2.899 1.227 4.5 1.5 1.231 1.183 1.231 2.349 0 3.5-1.467-1.195-2.967-1.195-4.5 0-0.945-0.405-1.612-1.072-2-2-0.839 2.64-0.339 4.973 1.5 7 0.787-0.742 1.453-1.575 2-2.5 0.832-0.688 1.498-0.521 2 0.5l-2 2c2.881 3.059 3.215 6.225 1 9.5 0.167 0.5 0.333 1 0.5 1.5 1.483-2.446 2.649-2.112 3.5 1-0.535 1.771-1.369 2.104-2.5 1 0.096 1.881-0.071 3.547-0.5 5-3.807-6.941-7.64-13.941-11.5-21-2.226-10.037-6.059-19.371-11.5-28-0.825-0.886-1.825-1.219-3-1v-44c-0.088-3.806 0.579-7.473 2-11 1.496 2.473 2.496 5.14 3 8z" fill="#ea77b7"/>
  <path d="m276.5 550.5c3.115 1.788 5.115 4.454 6 8 0.033 4.369-0.3 8.702-1 13-1.315 4.595-2.315 9.261-3 14-0.801 1.542-1.134 3.208-1 5-2.602 6.391-4.602 13.057-6 20-4.059 12.167-8.726 24.167-14 36v1c-5.333 6.667-11.333 12.667-18 18-0.251-1.67-0.918-3.17-2-4.5 1.456-0.423 1.956-1.256 1.5-2.5-1.671-1.776-3.504-2.11-5.5-1-1.083-0.865-1.249-1.865-0.5-3 1.533 0.444 3.033 0.777 4.5 1 1.502-2.333 1.002-3.999-1.5-5-1.098 0.884-1.598 1.884-1.5 3-1.222-2.409-0.555-4.242 2-5.5-2.292 1.101-3.792 0.268-4.5-2.5-0.414 0.457-0.914 0.791-1.5 1-1.12-1.333-2.453-1.833-4-1.5 0.727 1.399 1.227 2.899 1.5 4.5 3.262-1.341 3.762-1.008 1.5 1 1.029-0.204 2.029 0.296 3 1.5-1.391 1.02-2.891 1.853-4.5 2.5-2.412-2.071-4.412-4.404-6-7l-1.5 1.5c1.143 3.697 0.31 4.197-2.5 1.5-0.439 2.799-1.772 3.799-4 3-0.149 2.779-0.983 3.279-2.5 1.5l1-1c-1-0.167-2-0.333-3-0.5-3.302 0.88-6.635 1.546-10 2 7.133-2.94 14.133-6.273 21-10 7.867-4.691 15.033-10.357 21.5-17 16.373-20.082 26.373-43.082 30-69 0.765-3.483 2.265-6.483 4.5-9z" fill="#2cc0f6"/>
  <path d="m588.5 564.5c0.419 21.048-0.247 42.048-2 63-0.951 1.419-1.284 3.085-1 5-1.549-0.236-3.049-0.236-4.5 0-0.232-1.783 0.268-3.45 1.5-5-0.137-1.607-0.804-2.941-2-4 0.185 3.268-0.648 6.601-2.5 10-0.333-1.333-0.667-2.667-1-4-1.073 0.78-2.24 0.613-3.5-0.5 2.764-1.544 2.597-2.711-0.5-3.5-1.789 0.123-3.622 0.123-5.5 0-0.886 0.825-1.219 1.825-1 3-1.788 0.285-3.455-0.048-5-1 0.762-0.411 1.762-0.577 3-0.5-1.558-3.113-3.391-3.28-5.5-0.5-2.414-3.696-2.914-3.196-1.5 1.5-2.291 0.015-4.458 0.182-6.5 0.5-0.72-1.612-0.554-3.112 0.5-4.5-0.832-0.688-1.498-0.521-2 0.5-0.652 4.348-2.152 8.681-4.5 13-0.404 8.71-2.571 16.877-6.5 24.5l1 1c-1.17 1.755-2.837 2.755-5 3 2.095 0.556 2.262 1.056 0.5 1.5-0.945-0.405-1.612-1.072-2-2-0.918 2.563-0.418 4.73 1.5 6.5-1.284 0.684-2.451 0.517-3.5-0.5-0.667 2-1.333 4-2 6-0.265-2.151-1.265-3.818-3-5-0.5 0.333-1 0.667-1.5 1 1.774 3.35 0.774 5.016-3 5 0.436-2.864-0.397-5.197-2.5-7-0.75 0.626-1.584 1.126-2.5 1.5 1.073 1.313 1.74 2.813 2 4.5-0.663 3.306-1.163 6.639-1.5 10-0.232-1.237-0.732-2.237-1.5-3-1.127-20.66-2.127-41.327-3-62-0.727-8.662-1.393-17.328-2-26 0.722 0.418 1.222 1.084 1.5 2 0.651-1.735 0.485-3.402-0.5-5 0.308-0.808 0.808-1.475 1.5-2 1.368 1.493 1.535 2.993 0.5 4.5 0.787 6.694 1.62 13.194 2.5 19.5 0.333-0.667 0.667-1.333 1-2 2.016 0.197 4.016 1.197 6 3 0.617 0.949 0.451 1.782-0.5 2.5 1.284 0.684 2.451 0.517 3.5-0.5 0.333 1 0.667 2 1 3 0.465-1.431 1.299-2.597 2.5-3.5-0.951-0.718-1.117-1.551-0.5-2.5 1 0.333 2 0.667 3 1 0.333-1 0.667-2 1-3l1 1c2.584-2.525 4.751-2.025 6.5 1.5-0.667 0.333-1.333 0.667-2 1 2.14 0.973 3.807 2.473 5 4.5 0.333-0.667 0.667-1.333 1-2 0.692 0.525 1.192 1.192 1.5 2 0.45-2.019 1.283-3.852 2.5-5.5-1.894-1.101-2.561-2.434-2-4 1.114-1.57 2.447-2.903 4-4-0.808-0.308-1.475-0.808-2-1.5 0.734-2.315 2.068-4.148 4-5.5-0.333-1-0.667-2-1-3 1.508-1.507 2.841-3.173 4-5l-1-1c0.916-0.374 1.75-0.874 2.5-1.5 5.273 0.595 10.273 0.928 15 1 1.512-0.757 2.846-1.757 4-3 0.419 1.172 1.085 2.172 2 3 0.667-1.333 1.333-1.333 2 0 0.75-4.658 1.416-9.992 2-16 1.553 3.799 2.886 3.799 4 0 0.333 2.667 0.667 5.333 1 8 0.172-6.513 0.672-12.847 1.5-19z" fill="#edf9f9"/>
  <path d="m423.5 565.5c0.542 11.589 1.375 23.255 2.5 35 1-0.333 2-0.667 3-1 2.034 1.243 2.867 2.743 2.5 4.5 1.833-0.167 3.667-0.333 5.5-0.5 1.614 0.523 3.114 1.856 4.5 4 1.48-1.489 2.313-3.155 2.5-5 1.119 1.052 1.619 2.219 1.5 3.5 1.902 0.199 3.402 1.033 4.5 2.5 1.333-1.333 2.667-1.333 4 0 0.317-1.801 0.984-2.134 2-1 0.333-1 0.667-2 1-3 1.487 0.753 1.654 1.586 0.5 2.5 2.667 0.667 2.667 1.333 0 2 2.555 1.555 4.388 3.722 5.5 6.5 2.972 11.034 5.972 21.7 9 32 0.741-1.141 1.575-1.141 2.5 0 0.751-0.876 1.251-1.876 1.5-3 1.396 2.027 3.062 2.36 5 1 0.249 1.124 0.749 2.124 1.5 3 1.894-1.101 2.561-2.434 2-4 2.68 1.072 5.18 2.405 7.5 4 1-2.667 2-5.333 3-8 0.17 2.215 0.837 4.215 2 6 0.498-2.982 0.665-5.982 0.5-9 0.986 4.47 1.319 9.137 1 14 0.166 5.344-1e-3 10.677-0.5 16-1.016-1.134-1.683-0.801-2 1-1.908-2.832-2.741-2.499-2.5 1-5.21-0.882-5.21-0.215 0 2-1.022 0.854-1.855 1.854-2.5 3-1.273-2.214-2.273-4.547-3-7-1.016 1.134-1.683 0.801-2-1-1.134 3.64-2.134 3.307-3-1-0.923 1.259-1.757 2.592-2.5 4-0.333-0.167-0.667-0.333-1-0.5 0.619-1.835 0.786-4.001 0.5-6.5-4.327 6.5-5.494 6-3.5-1.5-1.786-0.785-3.286-1.951-4.5-3.5-1.081-4.976-2.081-9.976-3-15-1.093-3.086-2.926-5.586-5.5-7.5 1.333-1.667 1.333-3.333 0-5-2.569-1.426-4.736-1.259-6.5 0.5-1.487-0.753-1.654-1.586-0.5-2.5-1.266-0.309-2.433-0.809-3.5-1.5-0.684 1.284-0.517 2.451 0.5 3.5-1 0.667-2 0.667-3 0 1.388-0.889 1.222-1.389-0.5-1.5-3.251 2.509-5.251 1.509-6-3-1.487 0.753-1.654 1.586-0.5 2.5-1.576 0.44-2.91 1.273-4 2.5-2.361-1.276-4.528-0.942-6.5 1-0.617-0.949-0.451-1.782 0.5-2.5-1.35-1.718-2.517-3.552-3.5-5.5-0.502 2.917-0.502 5.917 0 9-0.608-1.566-1.442-2.9-2.5-4 0.175-2.121-0.159-4.121-1-6-2.547-18.904-3.547-37.904-3-57z" fill="#eaf9f9"/>
  <path d="m716.5 663.5c-1.052 0.149-2.052-0.017-3-0.5-3.623-3.449-6.623-7.283-9-11.5-0.166-4.014 1e-3 -8.014 0.5-12 3.112-3.223 6.612-3.723 10.5-1.5 6.662 5.652 9.162 12.818 7.5 21.5-1.026 3.193-3.192 4.526-6.5 4z" fill="#f9f8f9"/>
  <path d="m926.5 575.5c3.118 28.868-4.882 54.201-24 76 0.219-1.175-0.114-2.175-1-3-1.38 1.476-3.047 2.476-5 3-0.781 1.229-1.281 2.562-1.5 4-0.333-0.667-0.667-1.333-1-2-0.333 1.333-0.667 2.667-1 4-2.163-1.168-4.163-1.835-6-2-1.054 3.793-3.554 6.127-7.5 7-3.484-2.752-5.15-2.085-5 2-2.961-0.683-3.295-1.516-1-2.5-2.507-2.485-4.007-1.985-4.5 1.5-0.333-1-0.667-2-1-3-1.319 1.987-3.152 3.154-5.5 3.5 5.333 0.667 5.333 1.333 0 2 1.388 0.889 1.222 1.389-0.5 1.5-1.722-0.111-1.888-0.611-0.5-1.5-1.801-0.317-2.134-0.984-1-2l-1.5-1.5c-1.385 1.051-2.385 2.384-3 4-0.333-1.667-0.667-3.333-1-5-1.487 0.753-1.654 1.586-0.5 2.5-1.613 0.089-2.78-0.745-3.5-2.5-0.667 1.333-1.333 2.667-2 4-0.667-1.333-1.333-1.333-2 0-0.231-1.797-1.064-3.464-2.5-5 1.304-1.516 0.804-2.182-1.5-2-1.326 0.255-2.326 0.922-3 2-2.186 0.2-4.353-0.467-6.5-2-3.962 0.284-8.295 0.617-13 1-0.149-1.052 0.017-2.052 0.5-3 2.624-0.03 5.291 0.303 8 1 4.414-0.803 8.914-1.303 13.5-1.5-3.195-0.181-6.195-0.681-9-1.5h13c21.735-2.038 41.068-9.872 58-23.5 4.214-4.546 8.047-9.379 11.5-14.5 8.378-12.383 11.878-26.05 10.5-41z" fill="#2fb9f1"/>
  <path d="m327.5 622.5c-3.425 11.612-7.425 22.945-12 34-0.617-0.111-1.117-0.444-1.5-1-2 3.333-4.667 6-8 8-1.297-1.284-2.464-1.117-3.5 0.5 1.333 0.333 2.667 0.667 4 1-1.902 0.199-3.402 1.033-4.5 2.5-1.154-2.457-2.488-2.457-4 0-0.333-2-0.667-4-1-6-0.333 1.333-0.667 2.667-1 4-0.667-1.333-1.333-1.333-2 0-0.651 1.735-0.485 3.402 0.5 5-0.494 1.526-1.161 2.859-2 4-0.155-9.318-3.988-11.318-11.5-6-0.497 2.31-0.663 4.643-0.5 7-1.77-4.213-1.104-8.047 2-11.5-0.333-0.167-0.667-0.333-1-0.5-4.921 2.579-9.754 2.246-14.5-1-1.914 1.176-1.748 2.176 0.5 3-0.747 0.236-1.58 0.57-2.5 1-0.471-1.746-1.138-3.413-2-5-1.717 0.955-3.384 1.955-5 3-0.308-0.808-0.808-1.475-1.5-2-0.925 1.141-1.759 1.141-2.5 0-0.684 1.859-1.684 3.526-3 5-0.513-1.027-1.013-2.027-1.5-3 2.667-5.667 5.333-11.333 8-17v-1c0.722 0.418 1.222 1.084 1.5 2 1.617-1.351 2.784-3.018 3.5-5 0.808 0.308 1.475 0.808 2 1.5-4.941 7.761-2.941 9.261 6 4.5 0.667 1 1.333 2 2 3 1.098-1.115 2.265-1.115 3.5 0 0.5-0.167 1-0.333 1.5-0.5-1.211-0.893-1.211-1.726 0-2.5 1.299 0.59 2.132 1.59 2.5 3 0.333-0.667 0.667-1.333 1-2 0.923 1.259 1.757 2.592 2.5 4 1.667-1 3-2.333 4-4 1.932 0.645 3.099 1.979 3.5 4 0.374-0.916 0.874-1.75 1.5-2.5-1.196-0.654-1.196-1.154 0-1.5 0.751 0.876 1.251 1.876 1.5 3 0.26-2.118 1.26-3.784 3-5 3.972 4.296 7.472 3.963 10.5-1 1.517-0.011 2.684-0.677 3.5-2l1 1c0.333-1 0.667-2 1-3 0.317 1.801 0.984 2.134 2 1 0.233-6.935 0.399-13.935 0.5-21 2.17 1.586 4.504 2.92 7 4 0.664-2.236 1.831-4.236 3.5-6 0.383 0.556 0.883 0.889 1.5 1z" fill="#f9c2e6"/>
  <path d="m340.5 597.5c0.977 2.787 1.31 5.787 1 9-0.293 12.05 0.041 24.05 1 36 1.45 2.486 2.616 2.153 3.5-1 0.879 2.846 2.546 3.513 5 2 1.154 2.457 2.488 2.457 4 0 1 1.333 2 1.333 3 0 0.837 2.344 2.171 4.344 4 6 0.333-3 2-4.667 5-5-0.973 1.474-1.473 2.974-1.5 4.5 0.916 0.374 1.75 0.874 2.5 1.5 0.787-1.211 1.454-2.211 2-3 0.487 1.431 1.821 2.765 4 4 1.68-1.103 3.18-0.77 4.5 1 0.333-0.667 0.667-1.333 1-2 0.586 0.209 1.086 0.543 1.5 1 1.193-1.478 1.693-2.812 1.5-4 0.648 1.649 1.648 2.982 3 4 1.913-0.873 3.747-1.873 5.5-3 0.615 1.616 1.615 2.949 3 4 1.599-1.556 3.099-3.223 4.5-5 1.298 1.831 3.131 3.831 5.5 6 1.637-1.333 2.471-2.666 2.5-4 3.14 3.581 3.473 7.247 1 11 0.363 0.683 0.696 1.35 1 2-1.315 0.976-2.648 1.976-4 3 0.209 0.586 0.543 1.086 1 1.5-1.667 1-3 2.333-4 4 1.456 0.423 1.956 1.256 1.5 2.5l-1-1c-1.085 0.793-2.252 1.46-3.5 2-0.743-1.408-1.577-2.741-2.5-4 0.213 4.016-0.787 4.016-3 0-0.333 1-0.667 2-1 3-1.43 0.194-2.93 0.194-4.5 0-0.177 2.578-1.343 2.578-3.5 0-0.84 2.964-1.84 3.297-3 1-0.333 0.667-0.667 1.333-1 2-2.376-2.244-5.043-2.577-8-1-3.011-1.5-2.511-2.334 1.5-2.5-2.198-0.373-4.365-0.873-6.5-1.5-0.772 0.145-1.439 0.478-2 1-0.471-1.746-1.138-3.413-2-5-1.898 1.954-3.898 2.954-6 3-2.48-4.303-3.98-3.97-4.5 1 0.108 0.942 0.441 1.775 1 2.5-0.333 0.167-0.667 0.333-1 0.5-0.781-1.229-1.281-2.562-1.5-4-0.779 2.307-0.279 4.307 1.5 6-0.346 1.196-0.846 1.196-1.5 0-0.494 1.634-0.66 3.301-0.5 5-0.79 1.109-1.29 2.442-1.5 4-0.174-5.184-0.674-10.184-1.5-15-0.306-10.543-2.64-20.543-7-30-0.825-0.886-1.825-1.219-3-1 0.709-0.904 1.709-1.237 3-1v-41z" fill="#f9c7eb"/>
  <path d="m409.5 629.5c1.546 7.169 2.879 14.502 4 22-0.722-0.418-1.222-1.084-1.5-2-0.49 1.293-0.657 2.627-0.5 4h-1c-0.599-7.986-0.932-15.986-1-24z" fill="#d187c6"/>
  <path d="m426.5 622.5c0.841 1.879 1.175 3.879 1 6 2.703 14.812 6.036 29.479 10 44 1.893 8.921 3.227 17.921 4 27 0.945 19.585-2.388 38.252-10 56 1.125-5.189 2.125-10.356 3-15.5-0.333-0.833-0.667-1.667-1-2.5-0.951 0.826-1.951 0.992-3 0.5 0.691-1.067 1.191-2.234 1.5-3.5 1.587 1.227 2.921 0.894 4-1 0.19-3.576 1.357-6.742 3.5-9.5-1.118-1.074-2.118-2.24-3-3.5-0.752 3.692-1.586 7.358-2.5 11-1.544 2.764-2.711 2.597-3.5-0.5 0.667-0.333 1.333-0.667 2-1-1.778-2.222-1.945-4.388-0.5-6.5 1.044 1.123 1.71 2.456 2 4 0.93-3.35 0.097-6.183-2.5-8.5 0.958-1.147 0.625-2.147-1-3 0.691-1.067 1.191-2.234 1.5-3.5 0.423 1.456 1.256 1.956 2.5 1.5-0.498-1.158-1.331-1.991-2.5-2.5-1.333 1.333-2.667 1.333-4 0-1.882 0.593-2.882 1.927-3 4-0.127-3.104-0.293-6.104-0.5-9 3.147-3.53 3.481-7.197 1-11-0.099 2.621-0.433 5.288-1 8-0.513-3.621-1.513-6.954-3-10-2.031-14.123-4.698-28.123-8-42-1.121-7.498-2.454-14.831-4-22v-6-10c-0.164-2.687 3e-3 -5.354 0.5-8 0.333 2 0.667 4 1 6 0.333-0.667 0.667-1.333 1-2 1.887 1.526 2.887 3.526 3 6l3-3 1 1c-0.077-1.238 0.089-2.238 0.5-3 1.205 1.638 2.538 1.971 4 1 0.827 3.959 1.327 7.959 1.5 12 0.383-0.556 0.883-0.889 1.5-1z" fill="#36cef8"/>
  <path d="m704.5 651.5c2.377 4.217 5.377 8.051 9 11.5 0.948 0.483 1.948 0.649 3 0.5 1.843 0.783 3.843 1.45 6 2 1.006-0.438 1.006-1.104 0-2 1.151-1.231 2.317-1.231 3.5 0l3-3c1.085 2.157 2.251 2.324 3.5 0.5-2.429-0.451-2.596-1.285-0.5-2.5 1.333 4 2.667 4 4 0 1.699 0.906 3.533 1.239 5.5 1 0.193 3.949 0.693 3.949 1.5 0 1 1.333 2 1.333 3 0 2.032 2.268 3.365 1.602 4-2 1 2.667 2 2.667 3 0 1.525-0.388 3.192-0.388 5 0 2.789-2.629 4.789-1.962 6 2 0.399-0.228 0.565-0.562 0.5-1 4.748 7.829 9.748 15.496 15 23-0.627 5.829-1.793 6.162-3.5 1-0.333 1-0.667 2-1 3-2.151-2.612-2.985-2.612-2.5 0-1.536 3.393-2.536 3.393-3 0-1.098 3.861-1.931 3.861-2.5 0-0.667 1.333-1.333 1.333-2 0-0.456 1.244 0.044 2.077 1.5 2.5-1.372 0.402-2.705 0.902-4 1.5-1.104-1.131-0.771-1.965 1-2.5-1.211-1.578-2.545-1.745-4-0.5 1.109 1.465 0.609 2.465-1.5 3h-8c-0.167-0.333-0.333-0.667-0.5-1 0.876-0.751 1.876-1.251 3-1.5-1.601-0.273-3.101-0.773-4.5-1.5 0.077 1.238-0.089 2.238-0.5 3-1.017-2.528-2.184-2.528-3.5 0-0.914-3.685-1.581-3.352-2 1-1.881-2.325-3.548-2.325-5 0-2.149-1.127-3.316-2.46-3.5-4-1.598 2.473-3.098 2.473-4.5 0l-1 1c-0.49-1.293-0.657-2.627-0.5-4-0.65 0.304-1.317 0.637-2 1-1.39-1.703-2.89-2.37-4.5-2l-1.5 1.5c1.456 0.423 1.956 1.256 1.5 2.5-1.395-1.315-2.395-0.981-3 1-2.369-2.207-4.869-4.207-7.5-6-4.858-8.383-9.192-17.05-13-26 0.664-1.148 0.831-2.481 0.5-4 1.84 1.954 2.673 3.954 2.5 6 2.065-1.154 3.398-2.82 4-5z" fill="#f9bee4"/>
  <path d="m602.5 625.5v3c-3.398 17.953-6.565 35.953-9.5 54-0.785 10.38-0.619 20.713 0.5 31 0.015 4.06-0.485 8.06-1.5 12-0.5-1.167-1.333-2-2.5-2.5 3.135-2.931 3.469-6.098 1-9.5-0.14 1.069-0.14 2.236 0 3.5-1.176 1.674-2.51 3.174-4 4.5 1.465 2.445 0.965 4.445-1.5 6-0.333-1.667-0.667-3.333-1-5-1.113 1.26-1.28 2.427-0.5 3.5-0.757 1.512-1.757 2.846-3 4 1.638 6.146 3.638 12.479 6 19-0.167 0.5-0.333 1-0.5 1.5-0.608-1.566-1.442-2.9-2.5-4-6.129-12.516-9.463-25.85-10-40-0.142-9.024 0.192-18.024 1-27 4.119-15.481 7.786-31.148 11-47-0.284-1.915 0.049-3.581 1-5 1.599-5.069 2.433-10.402 2.5-16 0.333 1.333 0.667 2.667 1 4 0.333-0.667 0.667-1.333 1-2 0.667 1.333 1.333 1.333 2 0 1.685 2.488 3.019 2.155 4-1 0.914 1.154 1.747 0.987 2.5-0.5-1.428-3.474-0.928-3.974 1.5-1.5 0.174 5.184 0.674 10.184 1.5 15z" fill="#36cdf7"/>
  <path d="m498.5 651.5c1.651 20.265 0.984 40.599-2 61-3.279 18.22-10.613 34.553-22 49-3.297 0.171-3.631-0.495-1-2-0.502-1.216-0.835-2.383-1-3.5 2.221-5.065 4.055-10.232 5.5-15.5 0.836-4.879 1.669-9.712 2.5-14.5-0.958-1.147-0.625-2.147 1-3-1.323-0.816-1.989-1.983-2-3.5 0.279-7.905-0.388-15.905-2-24 0.108-0.942 0.441-1.775 1-2.5-1.441-6.408-2.607-12.908-3.5-19.5-1.763-2.52-3.763-4.853-6-7-1.934 1.919-1.767 3.419 0.5 4.5-3.149 1.035-5.816 0.368-8-2 1.896-1.065 2.063-1.898 0.5-2.5-1.221 0.772-2.221 1.772-3 3-0.805-4.205-2.472-3.872-5 1-1.43-0.194-2.93-0.194-4.5 0-1-1.667-2.333-3-4-4 0.293 1.547-0.207 3.214-1.5 5-0.569-3.861-1.402-3.861-2.5 0-1.471-0.881-2.304-2.214-2.5-4-0.198 1.882-0.698 3.548-1.5 5-3.964-14.521-7.297-29.188-10-44 1.058 1.1 1.892 2.434 2.5 4-0.502-3.083-0.502-6.083 0-9 0.983 1.948 2.15 3.782 3.5 5.5-0.951 0.718-1.117 1.551-0.5 2.5 1.972-1.942 4.139-2.276 6.5-1 1.09-1.227 2.424-2.06 4-2.5-1.154-0.914-0.987-1.747 0.5-2.5 0.749 4.509 2.749 5.509 6 3 1.722 0.111 1.888 0.611 0.5 1.5 1 0.667 2 0.667 3 0-1.017-1.049-1.184-2.216-0.5-3.5 1.067 0.691 2.234 1.191 3.5 1.5-1.154 0.914-0.987 1.747 0.5 2.5 1.764-1.759 3.931-1.926 6.5-0.5 1.333 1.667 1.333 3.333 0 5 2.574 1.914 4.407 4.414 5.5 7.5 0.919 5.024 1.919 10.024 3 15 1.214 1.549 2.714 2.715 4.5 3.5-1.994 7.5-0.827 8 3.5 1.5 0.286 2.499 0.119 4.665-0.5 6.5 0.333 0.167 0.667 0.333 1 0.5 0.743-1.408 1.577-2.741 2.5-4 0.866 4.307 1.866 4.64 3 1 0.317 1.801 0.984 2.134 2 1 0.727 2.453 1.727 4.786 3 7 0.645-1.146 1.478-2.146 2.5-3-5.21-2.215-5.21-2.882 0-2-0.241-3.499 0.592-3.832 2.5-1 0.317-1.801 0.984-2.134 2-1 0.499-5.323 0.666-10.656 0.5-16z" fill="#def7f9"/>
  <path d="m585.5 632.5c-3.214 15.852-6.881 31.519-11 47-0.977-2.787-1.31-5.787-1-9-2.543-0.857-4.877-2.19-7-4-1.406 0.927-2.906 1.927-4.5 3-1.645-2.215-3.812-3.048-6.5-2.5 0.667 0.333 1.333 0.667 2 1-1.333 0.667-1.333 1.333 0 2-2.78 0.269-4.946-0.898-6.5-3.5-0.915 0.828-1.581 1.828-2 3-1.587-1.227-2.921-0.894-4 1-0.862-1.587-1.529-3.254-2-5-1.064 2.459-2.398 4.792-4 7-1.693 10.952-2.86 21.952-3.5 33 1.079 8.652 1.079 17.152 0 25.5 1.537 1.11 2.203 2.61 2 4.5h-3v-3c-1.052-0.149-2.052 0.017-3 0.5 1.211 0.893 1.211 1.726 0 2.5-1.5-2.333-3-4.667-4.5-7-0.464 0.594-0.631 1.261-0.5 2-5.836-14.684-9.503-30.018-11-46 0.768 0.763 1.268 1.763 1.5 3 0.337-3.361 0.837-6.694 1.5-10-0.26-1.687-0.927-3.187-2-4.5 0.916-0.374 1.75-0.874 2.5-1.5 2.103 1.803 2.936 4.136 2.5 7 3.774 0.016 4.774-1.65 3-5 0.5-0.333 1-0.667 1.5-1 1.735 1.182 2.735 2.849 3 5 0.667-2 1.333-4 2-6 1.049 1.017 2.216 1.184 3.5 0.5-1.918-1.77-2.418-3.937-1.5-6.5 0.388 0.928 1.055 1.595 2 2 1.762-0.444 1.595-0.944-0.5-1.5 2.163-0.245 3.83-1.245 5-3l-1-1c3.929-7.623 6.096-15.79 6.5-24.5 2.348-4.319 3.848-8.652 4.5-13 0.502-1.021 1.168-1.188 2-0.5-1.054 1.388-1.22 2.888-0.5 4.5 2.042-0.318 4.209-0.485 6.5-0.5-1.414-4.696-0.914-5.196 1.5-1.5 2.109-2.78 3.942-2.613 5.5 0.5-1.238-0.077-2.238 0.089-3 0.5 1.545 0.952 3.212 1.285 5 1-0.219-1.175 0.114-2.175 1-3 1.878 0.123 3.711 0.123 5.5 0 3.097 0.789 3.264 1.956 0.5 3.5 1.26 1.113 2.427 1.28 3.5 0.5 0.333 1.333 0.667 2.667 1 4 1.852-3.399 2.685-6.732 2.5-10 1.196 1.059 1.863 2.393 2 4-1.232 1.55-1.732 3.217-1.5 5 1.451-0.236 2.951-0.236 4.5 0z" fill="#def6f9"/>
  <path d="m101.5 621.5c10.435 14.6 23.769 25.766 40 33.5 19.269 5.781 38.603 5.948 58 0.5 3.365-0.454 6.698-1.12 10-2 1 0.167 2 0.333 3 0.5l-1 1c1.517 1.779 2.351 1.279 2.5-1.5 2.228 0.799 3.561-0.201 4-3 2.81 2.697 3.643 2.197 2.5-1.5l1.5-1.5c1.588 2.596 3.588 4.929 6 7 1.609-0.647 3.109-1.48 4.5-2.5-0.971-1.204-1.971-1.704-3-1.5 2.262-2.008 1.762-2.341-1.5-1-0.273-1.601-0.773-3.101-1.5-4.5 1.547-0.333 2.88 0.167 4 1.5 0.586-0.209 1.086-0.543 1.5-1 0.708 2.768 2.208 3.601 4.5 2.5-2.555 1.258-3.222 3.091-2 5.5-0.098-1.116 0.402-2.116 1.5-3 2.502 1.001 3.002 2.667 1.5 5-1.467-0.223-2.967-0.556-4.5-1-0.749 1.135-0.583 2.135 0.5 3 1.996-1.11 3.829-0.776 5.5 1 0.456 1.244-0.044 2.077-1.5 2.5 1.082 1.33 1.749 2.83 2 4.5-10.087 10.354-22.087 17.354-36 21-23.202 0.46-45.202-4.373-66-14.5-16.59-9.051-27.59-22.551-33-40.5-0.42-3.507-1.42-6.841-3-10z" fill="#30b6f2"/>
  <path d="m603.5 623.5c0.83 10.492 1.33 21.159 1.5 32 0.498-2.982 0.665-5.982 0.5-9 0.863-0.963 1.53-0.963 2 0-0.874 2.247-1.208 4.58-1 7 2.369 0.351 4.703 0.518 7 0.5-1.284-1.297-1.117-2.464 0.5-3.5 1.487 0.753 1.654 1.586 0.5 2.5 2.474 0.113 4.474 1.113 6 3l-1.5 1.5c-0.805-2.401-1.638-2.234-2.5 0.5 2.867 0.029 5.367 0.862 7.5 2.5 0.689-0.857 1.522-1.523 2.5-2 2.906 1.14 5.739 1.14 8.5 0 0.333 0.667 0.667 1.333 1 2 2.12-4.182 3.453-3.848 4 1 0.333-1 0.667-2 1-3 3.874-0.896 7.874-0.896 12 0 0.692-0.525 1.192-1.192 1.5-2-1.229-0.781-2.562-1.281-4-1.5 1.601-0.273 3.101-0.773 4.5-1.5 1.02 6.107 2.854 6.44 5.5 1 0.333 0.167 0.667 0.333 1 0.5-0.837 1.011-1.17 2.178-1 3.5h3c-0.149 1.052 0.017 2.052 0.5 3 0.333-2 0.667-4 1-6l2 2c0.075-2.435 0.908-3.102 2.5-2v3 8c-1.185 7.34-1.185 14.84 0 22.5-0.42 5.821-0.753 5.654-1-0.5-0.556-6.994-1.223-13.994-2-21-1.09 1.227-2.424 2.06-4 2.5 1.537 2.313 2.037 4.813 1.5 7.5-1.512-0.757-2.846-1.757-4-3-0.925 0.547-1.758 1.213-2.5 2 1.103 0.498 2.103 0.831 3 1-2.214 0.541-4.38 0.874-6.5 1-1.57-1.114-2.903-2.447-4-4-0.743 1.941-0.576 3.774 0.5 5.5-1.511 1.615-2.844 1.615-4 0 1.473-0.71 2.14-1.876 2-3.5-1.831 0.552-3.497 0.552-5 0-0.751 0.876-1.251 1.876-1.5 3-0.333-0.667-0.667-1.333-1-2-1.133 1.711-2.633 2.211-4.5 1.5l1-1c-1.238 0.077-2.238-0.089-3-0.5 0.525-0.692 1.192-1.192 2-1.5-1.601-0.273-3.101-0.773-4.5-1.5-1.836 1.631-1.336 2.298 1.5 2 0.171 3.297-0.495 3.631-2 1l-2 2c-0.406-1.057-0.406-2.391 0-4-3.098-0.087-3.432 0.413-1 1.5-3.001 1.447-5.501 0.613-7.5-2.5-2.035 2.412-3.035 1.745-3-2-1.434 1.636-3.267 2.636-5.5 3-0.249-1.082-0.415-2.415-0.5-4-1.716 1.052-2.716 0.386-3-2-0.333 1-0.667 2-1 3-0.333-1.667-0.667-3.333-1-5-0.176 4.188-0.676 8.188-1.5 12-1.162-17.142-2.162-34.142-3-51v-3c-0.172-0.992 0.162-1.658 1-2z" fill="#f9c7e9"/>
  <path d="m902.5 651.5c-10.788 11.245-23.788 19.078-39 23.5-17.702 4.474-35.702 6.64-54 6.5-10.03-3.181-19.03-8.181-27-15 0.904-0.709 1.237-1.709 1-3-3.292 0.38-5.625-0.953-7-4 2.818-1.381 4.318-0.381 4.5 3 0.333-0.667 0.667-1.333 1-2 1.049 1.017 2.216 1.184 3.5 0.5 1.378-1.713 3.045-3.047 5-4-1.439-0.991-2.439-2.324-3-4 1.244-0.456 2.077 0.044 2.5 1.5 0.414-0.457 0.914-0.791 1.5-1 1.211 0.774 1.211 1.607 0 2.5 1 0.667 2 0.667 3 0l-1-1c0.928-0.388 1.595-1.055 2-2-0.687-1.162-0.853-2.328-0.5-3.5 1.419 0.96 2.919 1.793 4.5 2.5-1.783 1.067-2.283 2.567-1.5 4.5 1.316-1.474 2.316-3.141 3-5 1.113 1.211 2.28 1.211 3.5 0 0.692 0.525 1.192 1.192 1.5 2 0.561-0.522 1.228-0.855 2-1 0.759 1.146 1.426 2.146 2 3 1.011-0.392 1.511-1.059 1.5-2 2.487 0.282 5.153 0.282 8 0 4.652 0.498 9.319 0.831 14 1 2.805 0.819 5.805 1.319 9 1.5-4.586 0.197-9.086 0.697-13.5 1.5-2.709-0.697-5.376-1.03-8-1-0.483 0.948-0.649 1.948-0.5 3 4.705-0.383 9.038-0.716 13-1 2.147 1.533 4.314 2.2 6.5 2 0.674-1.078 1.674-1.745 3-2 2.304-0.182 2.804 0.484 1.5 2 1.436 1.536 2.269 3.203 2.5 5 0.667-1.333 1.333-1.333 2 0 0.667-1.333 1.333-2.667 2-4 0.72 1.755 1.887 2.589 3.5 2.5-1.154-0.914-0.987-1.747 0.5-2.5 0.333 1.667 0.667 3.333 1 5 0.615-1.616 1.615-2.949 3-4l1.5 1.5c-1.134 1.016-0.801 1.683 1 2-1.388 0.889-1.222 1.389 0.5 1.5 1.722-0.111 1.888-0.611 0.5-1.5 5.333-0.667 5.333-1.333 0-2 2.348-0.346 4.181-1.513 5.5-3.5 0.333 1 0.667 2 1 3 0.493-3.485 1.993-3.985 4.5-1.5-2.295 0.984-1.961 1.817 1 2.5-0.15-4.085 1.516-4.752 5-2 3.946-0.873 6.446-3.207 7.5-7 1.837 0.165 3.837 0.832 6 2 0.333-1.333 0.667-2.667 1-4 0.333 0.667 0.667 1.333 1 2 0.219-1.438 0.719-2.771 1.5-4 1.953-0.524 3.62-1.524 5-3 0.886 0.825 1.219 1.825 1 3z" fill="#2eb6f3"/>
  <path d="m410.5 653.5h1c0.245 14.715-0.421 29.382-2 44-0.666-4.184-1.333-8.518-2-13-1.875-1.336-3.208-0.836-4 1.5 2.209 0.957 2.043 2.124-0.5 3.5-1.395-1.315-2.395-0.981-3 1-1-2.667-2-2.667-3 0-1.418-2.501-2.418-2.168-3 1-1.585-0.876-2.585-2.209-3-4-2.138 1.949-4.471 3.616-7 5-0.388-0.928-1.055-1.595-2-2-1.533 1.195-3.033 1.195-4.5 0-0.886 0.825-1.219 1.825-1 3-1.052 0.149-2.052-0.017-3-0.5l1-1c-3.044-0.359-3.378-1.026-1-2-0.948-0.483-1.948-0.649-3-0.5 0.171 3.297-0.495 3.631-2 1-2.496 0.228-4.83 0.228-7 0-1.172-0.419-2.172-1.085-3-2-0.687-1.774-1.52-3.441-2.5-5-2.096 1.215-1.929 2.049 0.5 2.5-4.882 2.631-6.882 1.131-6-4.5-0.16-1.699 6e-3 -3.366 0.5-5 0.654 1.196 1.154 1.196 1.5 0-1.779-1.693-2.279-3.693-1.5-6 0.219 1.438 0.719 2.771 1.5 4 0.333-0.167 0.667-0.333 1-0.5-0.559-0.725-0.892-1.558-1-2.5 0.52-4.97 2.02-5.303 4.5-1 2.102-0.046 4.102-1.046 6-3 0.862 1.587 1.529 3.254 2 5 0.561-0.522 1.228-0.855 2-1 2.135 0.627 4.302 1.127 6.5 1.5-4.011 0.166-4.511 1-1.5 2.5 2.957-1.577 5.624-1.244 8 1 0.333-0.667 0.667-1.333 1-2 1.16 2.297 2.16 1.964 3-1 2.157 2.578 3.323 2.578 3.5 0 1.57 0.194 3.07 0.194 4.5 0 0.333-1 0.667-2 1-3 2.213 4.016 3.213 4.016 3 0 0.923 1.259 1.757 2.592 2.5 4 1.248-0.54 2.415-1.207 3.5-2l1 1c0.456-1.244-0.044-2.077-1.5-2.5 1-1.667 2.333-3 4-4-0.457-0.414-0.791-0.914-1-1.5 1.352-1.024 2.685-2.024 4-3 0.487 0.973 0.987 1.973 1.5 3 0.499-3.986 0.666-7.986 0.5-12z" fill="#f9c1e6"/>
  <path d="m668.5 688.5c-0.789 0.283-1.456 0.783-2 1.5 0.116 1.268 0.449 2.602 1 4-2.069 0.324-2.402 1.158-1 2.5-0.5 0.333-1 0.667-1.5 1-2.975-2.473-6.141-3.806-9.5-4-2.051 0.022-4.217 0.689-6.5 2-2.102-0.538-2.935-1.538-2.5-3-0.751 0.876-1.251 1.876-1.5 3-1.628-0.597-3.295-0.263-5 1-0.974-2.378-1.641-2.044-2 1-0.833-1-1.667-2-2.5-3-0.586 0.209-1.086 0.543-1.5 1-0.615-1.616-1.615-2.949-3-4-1.333 1.333-2.667 1.333-4 0-1.079 1.894-2.413 2.227-4 1-0.626 2.491-1.459 2.491-2.5 0-1.333 0.333-2.667 0.667-4 1-1.017-2.528-2.184-2.528-3.5 0-0.626-2.491-1.459-2.491-2.5 0-1.552-3.028-2.385-6.695-2.5-11-0.186 2.536-0.686 4.869-1.5 7-0.707-3.286-1.04-6.619-1-10 0.824-3.812 1.324-7.812 1.5-12 0.333 1.667 0.667 3.333 1 5 0.333-1 0.667-2 1-3 0.284 2.386 1.284 3.052 3 2 0.085 1.585 0.251 2.918 0.5 4 2.233-0.364 4.066-1.364 5.5-3-0.035 3.745 0.965 4.412 3 2 1.999 3.113 4.499 3.947 7.5 2.5-2.432-1.087-2.098-1.587 1-1.5-0.406 1.609-0.406 2.943 0 4l2-2c1.505 2.631 2.171 2.297 2-1-2.836 0.298-3.336-0.369-1.5-2 1.399 0.727 2.899 1.227 4.5 1.5-0.808 0.308-1.475 0.808-2 1.5 0.762 0.411 1.762 0.577 3 0.5l-1 1c1.867 0.711 3.367 0.211 4.5-1.5 0.333 0.667 0.667 1.333 1 2 0.249-1.124 0.749-2.124 1.5-3 1.503 0.552 3.169 0.552 5 0 0.14 1.624-0.527 2.79-2 3.5 1.156 1.615 2.489 1.615 4 0-1.076-1.726-1.243-3.559-0.5-5.5 1.097 1.553 2.43 2.886 4 4 2.12-0.126 4.286-0.459 6.5-1-0.897-0.169-1.897-0.502-3-1 0.742-0.787 1.575-1.453 2.5-2 1.154 1.243 2.488 2.243 4 3 0.537-2.687 0.037-5.187-1.5-7.5 1.576-0.44 2.91-1.273 4-2.5 0.777 7.006 1.444 14.006 2 21z" fill="#f9c0e6"/>
  <path d="m315.5 656.5c-4.486 10.969-9.486 21.636-15 32-0.667 0.333-1.333 0.667-2 1-2.098 1.414-3.098 0.748-3-2-1.373-0.157-2.707 0.01-4 0.5 2.528 0.669 2.528 1.502 0 2.5-1.463-0.132-2.963-0.465-4.5-1l-2 2c-1.473-0.403-2.806-1.07-4-2-0.667 4-1.333 4-2 0-1.232 3.255-3.232 3.588-6 1-0.333 1-0.667 2-1 3-0.219-1.438-0.719-2.771-1.5-4-1 1.333-2 1.333-3 0-1.634 0.468-2.8 1.468-3.5 3-0.923-1.259-1.757-2.592-2.5-4-4.588 1.323-4.922 0.823-1-1.5-1.933-0.251-3.766-0.751-5.5-1.5-1.343 0.714-2.676 0.38-4-1-1.66-0.176-3.326 0.491-5 2-0.333-1.667-0.667-3.333-1-5l-1.5 3c-1 1.333-2 1.333-3 0 0.525-0.692 1.192-1.192 2-1.5-0.808-0.308-1.475-0.808-2-1.5 2.158-2.648 3.492-5.648 4-9 1.681-2.703 3.347-5.369 5-8 0.487 0.973 0.987 1.973 1.5 3 1.316-1.474 2.316-3.141 3-5 0.741 1.141 1.575 1.141 2.5 0 0.692 0.525 1.192 1.192 1.5 2 1.616-1.045 3.283-2.045 5-3 0.862 1.587 1.529 3.254 2 5 0.92-0.43 1.753-0.764 2.5-1-2.248-0.824-2.414-1.824-0.5-3 4.746 3.246 9.579 3.579 14.5 1 0.333 0.167 0.667 0.333 1 0.5-3.104 3.453-3.77 7.287-2 11.5 4.468 5.551 8.468 5.218 12-1 0.839-1.141 1.506-2.474 2-4-0.985-1.598-1.151-3.265-0.5-5 0.667-1.333 1.333-1.333 2 0 0.333-1.333 0.667-2.667 1-4 0.333 2 0.667 4 1 6 1.512-2.457 2.846-2.457 4 0 1.098-1.467 2.598-2.301 4.5-2.5-1.333-0.333-2.667-0.667-4-1 1.036-1.617 2.203-1.784 3.5-0.5 3.333-2 6-4.667 8-8 0.383 0.556 0.883 0.889 1.5 1z" fill="#f9b7df"/>
  <path d="m292.5 674.5c-3.532 6.218-7.532 6.551-12 1-0.163-2.357 3e-3 -4.69 0.5-7 7.512-5.318 11.345-3.318 11.5 6z" fill="#f9f6f9"/>
  <path d="m727.5 682.5c-3.451-2.91-4.618-6.577-3.5-11 6.306-2.099 10.139 0.068 11.5 6.5-0.458 5.27-3.124 6.77-8 4.5z" fill="#f9f5f9"/>
  <path d="m756.5 642.5c7.061 9.727 15.727 17.727 26 24 7.97 6.819 16.97 11.819 27 15 8.659 3.95 17.659 7.45 27 10.5 6.572 3.292 11.739 8.125 15.5 14.5 1.009 1.525 1.509 3.192 1.5 5-7.301 5.225-15.301 6.392-24 3.5-5.032-1.854-10.032-3.687-15-5.5-5.821-4.304-11.821-8.47-18-12.5-5.836-5.004-11.503-10.171-17-15.5-5.252-7.504-10.252-15.171-15-23-2.68-5.36-5.347-10.693-8-16z" fill="#cb509b"/>
  <path d="m479.5 719.5c-0.701-3.063-1.368-6.23-2-9.5 0.836-1.243 0.503-2.41-1-3.5-1.017 2.528-2.184 2.528-3.5 0-1.962-0.469-3.795 0.197-5.5 2-1.571-1.813-2.237-4.146-2-7-2.316 1.432-4.816 2.432-7.5 3-0.824-1.308-1.324-2.808-1.5-4.5-1.608-0.658-2.775-0.158-3.5 1.5-0.5-1.167-1.333-2-2.5-2.5 0.667-0.333 1.333-0.667 2-1-1.576-0.44-2.91-1.273-4-2.5 0.516 1.258-0.15 2.258-2 3 0.667 0.333 1.333 0.667 2 1-2.037 3.263-4.37 3.263-7 0-0.773-9.079-2.107-18.079-4-27 0.802-1.452 1.302-3.118 1.5-5 0.196 1.786 1.029 3.119 2.5 4 1.098-3.861 1.931-3.861 2.5 0 1.293-1.786 1.793-3.453 1.5-5 1.667 1 3 2.333 4 4 1.57-0.194 3.07-0.194 4.5 0 2.528-4.872 4.195-5.205 5-1 0.779-1.228 1.779-2.228 3-3 1.563 0.602 1.396 1.435-0.5 2.5 2.184 2.368 4.851 3.035 8 2-2.267-1.081-2.434-2.581-0.5-4.5 2.237 2.147 4.237 4.48 6 7 0.893 6.592 2.059 13.092 3.5 19.5-0.559 0.725-0.892 1.558-1 2.5 1.612 8.095 2.279 16.095 2 24z" fill="#caf3f9"/>
  <path d="m574.5 679.5c-0.808 8.976-1.142 17.976-1 27-1.296 3.869-1.296 7.869 0 12-0.865 1.083-1.865 1.249-3 0.5 1.211-0.893 1.211-1.726 0-2.5-1.746 2.354-4.079 3.354-7 3 0.146 2.442-0.687 3.109-2.5 2l-1.5 1.5c1.231 1.183 1.231 2.349 0 3.5-2.114 0.534-3.948 1.534-5.5 3-2.14-1.228-3.807-2.895-5-5-0.915 0.828-1.581 1.828-2 3-1.398-0.551-2.732-0.884-4-1-0.75 0.626-1.584 1.126-2.5 1.5-0.173 12.582 3.161 24.415 10 35.5-0.743 0.682-1.409 1.349-2 2-8.237-9.468-15.237-19.802-21-31-0.333-1.333-0.667-2.667-1-4-0.131-0.739 0.036-1.406 0.5-2 1.5 2.333 3 4.667 4.5 7 1.211-0.774 1.211-1.607 0-2.5 0.948-0.483 1.948-0.649 3-0.5v3h3c0.203-1.89-0.463-3.39-2-4.5 1.079-8.348 1.079-16.848 0-25.5 0.64-11.048 1.807-22.048 3.5-33 1.602-2.208 2.936-4.541 4-7 0.471 1.746 1.138 3.413 2 5 1.079-1.894 2.413-2.227 4-1 0.419-1.172 1.085-2.172 2-3 1.554 2.602 3.72 3.769 6.5 3.5-1.333-0.667-1.333-1.333 0-2-0.667-0.333-1.333-0.667-2-1 2.688-0.548 4.855 0.285 6.5 2.5 1.594-1.073 3.094-2.073 4.5-3 2.123 1.81 4.457 3.143 7 4-0.31 3.213 0.023 6.213 1 9z" fill="#c8f3f9"/>
  <path d="m244.5 672.5c-0.508 3.352-1.842 6.352-4 9 0.525 0.692 1.192 1.192 2 1.5-0.808 0.308-1.475 0.808-2 1.5 1 1.333 2 1.333 3 0l1.5-3c0.333 1.667 0.667 3.333 1 5 1.674-1.509 3.34-2.176 5-2 1.324 1.38 2.657 1.714 4 1 1.734 0.749 3.567 1.249 5.5 1.5-3.922 2.323-3.588 2.823 1 1.5 0.743 1.408 1.577 2.741 2.5 4 0.7-1.532 1.866-2.532 3.5-3 1 1.333 2 1.333 3 0 0.781 1.229 1.281 2.562 1.5 4 0.333-1 0.667-2 1-3 2.768 2.588 4.768 2.255 6-1 0.667 4 1.333 4 2 0 1.194 0.93 2.527 1.597 4 2l2-2c1.537 0.535 3.037 0.868 4.5 1 2.528-0.998 2.528-1.831 0-2.5 1.293-0.49 2.627-0.657 4-0.5-0.098 2.748 0.902 3.414 3 2-3.084 7.847-7.417 14.847-13 21-0.617-0.111-1.117-0.444-1.5-1-0.667 1.333-1.333 2.667-2 4l-1-1c-0.308 0.808-0.808 1.475-1.5 2-0.85-2.23-1.85-4.563-3-7-0.854 1.022-1.854 1.855-3 2.5 1.771 0.535 2.104 1.369 1 2.5-1.439-1.86-3.105-3.527-5-5-1.165 0.991-2.332 1.991-3.5 3-1.653-0.32-2.653-1.32-3-3-0.317 1.801-0.984 2.134-2 1-0.388 0.928-1.055 1.595-2 2-1.162-0.687-2.328-0.853-3.5-0.5 0.951 0.718 1.117 1.551 0.5 2.5-2.043-1.708-3.71-3.708-5-6-0.617 0.949-0.451 1.782 0.5 2.5-1.782 0.814-3.282 1.981-4.5 3.5-2.112-3.627-3.779-3.627-5 0-0.862-1.587-1.529-3.254-2-5-0.667 2.667-1.333 2.667-2 0-0.333 1-0.667 2-1 3-0.869-3.263-2.203-3.596-4-1-1.309-2.391-2.309-2.391-3 0-1.385-1.051-2.385-2.384-3-4-2.123 1.383-3.123 3.05-3 5-0.667-1.333-1.333-2.667-2-4-0.249 1.124-0.749 2.124-1.5 3-1.196-0.346-1.196-0.846 0-1.5-1.997-0.76-3.663-1.26-5-1.5 1.55-2.122 3.55-3.789 6-5 0.886-0.825 1.219-1.825 1-3 8.489-7.812 15.823-16.478 22-26z" fill="#f9aed8"/>
  <path d="m257.5 647.5c-2.667 5.667-5.333 11.333-8 17-1.653 2.631-3.319 5.297-5 8-6.177 9.522-13.511 18.188-22 26-10.768 8.217-22.768 14.05-36 17.5-5 0.667-10 0.667-15 0-2.525-0.424-4.525-1.59-6-3.5 0.276-6.661 2.942-12.161 8-16.5 9.913-3.805 19.913-6.971 30-9.5 13.913-3.646 25.913-10.646 36-21 6.667-5.333 12.667-11.333 18-18z" fill="#cb4f9a"/>
  <path d="m337.5 588.5c2.351 2.341 3.351 5.341 3 9v41c-1.291-0.237-2.291 0.096-3 1-2.423 3.845-4.59 7.845-6.5 12-5.65 28.633-18.15 53.633-37.5 75 0.17-1.322-0.163-2.489-1-3.5 2.15-1.649 4.15-3.482 6-5.5 1.181-1.635 1.181-3.302 0-5 0.525-0.692 1.192-1.192 2-1.5-1.015-2.329-2.515-4.829-4.5-7.5-1.067 1.783-2.567 2.283-4.5 1.5 2.518-2.779 5.018-2.945 7.5-0.5l1.5-1.5c-1.86-2.74-1.86-5.24 0-7.5-1.172-2.323-1.172-4.656 0-7 5.514-10.364 10.514-21.031 15-32 4.575-11.055 8.575-22.388 12-34 1.375-2.873 2.375-5.873 3-9 1.584-4.917 2.918-9.917 4-15 0.846-3.048 1.846-6.048 3-9v-1z" fill="#ec79b6"/>
  <path d="m602.5 628.5c0.838 16.858 1.838 33.858 3 51-0.04 3.381 0.293 6.714 1 10-0.04 3.381 0.293 6.714 1 10 0.268 2.619-0.065 5.119-1 7.5 1.537 1.11 2.203 2.61 2 4.5-1.052 0.149-2.052-0.017-3-0.5 0.696-1.488 0.362-2.988-1-4.5-0.978 0.477-1.811 1.143-2.5 2 0.979-1.779 0.646-3.445-1-5-0.333 1-0.667 2-1 3l-1-1c0.544 2.216 0.377 4.383-0.5 6.5 0.115 1.895 0.782 3.562 2 5-1.176 1.674-2.51 3.174-4 4.5 1.235 1.816 1.235 3.483 0 5-0.892-4.475-1.892-8.808-3-13-1.119-10.287-1.285-20.62-0.5-31 2.935-18.047 6.102-36.047 9.5-54z" fill="#e874b6"/>
  <path d="m669.5 666.5c-0.248 7.113 0.418 14.113 2 21-0.656 1.122-0.989 2.455-1 4 1.111 7.662 2.111 15.329 3 23-0.29 1.522-0.29 3.022 0 4.5-1.759 0.98-3.426 1.647-5 2 1.137 5.082 1.304 10.249 0.5 15.5-0.383 0.556-0.883 0.889-1.5 1 2.714-9.093 0.714-16.926-6-23.5-10.845-4.349-15.511-0.515-14 11.5-1.497-4.212-1.164-8.379 1-12.5-0.626-0.75-1.126-1.584-1.5-2.5-1.262 1.803-2.929 3.136-5 4-0.667-0.667-0.667-1.333 0-2 1.205-0.571 2.372-1.238 3.5-2-0.167-0.333-0.333-0.667-0.5-1-1.333 1.333-2.667 1.333-4 0-0.333 0.667-0.667 1.333-1 2-1.588-2.468-3.422-2.634-5.5-0.5l1 1c-1.933 0.251-3.766 0.751-5.5 1.5-0.127-1.277 0.373-2.443 1.5-3.5-0.333-0.5-0.667-1-1-1.5-1.188 1.34-2.688 2.007-4.5 2-2.708-1.218-5.375-2.218-8-3-1.676 0.561-3.009 1.561-4 3-0.333-1-0.667-2-1-3-0.893 1.211-1.726 1.211-2.5 0 0.223-1.467 0.556-2.967 1-4.5-0.744-1.039-1.744-1.539-3-1.5 0.172-0.992-0.162-1.658-1-2-0.707-3.286-1.04-6.619-1-10 0.814-2.131 1.314-4.464 1.5-7 0.115 4.305 0.948 7.972 2.5 11 1.041-2.491 1.874-2.491 2.5 0 1.316-2.528 2.483-2.528 3.5 0 1.333-0.333 2.667-0.667 4-1 1.041 2.491 1.874 2.491 2.5 0 1.587 1.227 2.921 0.894 4-1 1.333 1.333 2.667 1.333 4 0 1.385 1.051 2.385 2.384 3 4 0.414-0.457 0.914-0.791 1.5-1 0.833 1 1.667 2 2.5 3 0.359-3.044 1.026-3.378 2-1 1.705-1.263 3.372-1.597 5-1 0.249-1.124 0.749-2.124 1.5-3-0.435 1.462 0.398 2.462 2.5 3 2.283-1.311 4.449-1.978 6.5-2 3.359 0.194 6.525 1.527 9.5 4 0.5-0.333 1-0.667 1.5-1-1.402-1.342-1.069-2.176 1-2.5-0.551-1.398-0.884-2.732-1-4 0.544-0.717 1.211-1.217 2-1.5 0.247 6.154 0.58 6.321 1 0.5-1.185-7.66-1.185-15.16 0-22.5z" fill="#f8b9e0"/>
  <path d="m710.5 680.5c2.631 1.793 5.131 3.793 7.5 6 0.605-1.981 1.605-2.315 3-1 0.456-1.244-0.044-2.077-1.5-2.5l1.5-1.5c1.61-0.37 3.11 0.297 4.5 2 0.683-0.363 1.35-0.696 2-1-0.157 1.373 0.01 2.707 0.5 4l1-1c1.402 2.473 2.902 2.473 4.5 0 0.184 1.54 1.351 2.873 3.5 4 1.452-2.325 3.119-2.325 5 0 0.419-4.352 1.086-4.685 2-1 1.316-2.528 2.483-2.528 3.5 0 0.411-0.762 0.577-1.762 0.5-3 1.399 0.727 2.899 1.227 4.5 1.5-1.124 0.249-2.124 0.749-3 1.5 0.167 0.333 0.333 0.667 0.5 1h8c2.109-0.535 2.609-1.535 1.5-3 1.455-1.245 2.789-1.078 4 0.5-1.771 0.535-2.104 1.369-1 2.5 1.295-0.598 2.628-1.098 4-1.5-1.456-0.423-1.956-1.256-1.5-2.5 0.667 1.333 1.333 1.333 2 0 0.569 3.861 1.402 3.861 2.5 0 0.464 3.393 1.464 3.393 3 0-0.485-2.612 0.349-2.612 2.5 0 0.333-1 0.667-2 1-3 1.707 5.162 2.873 4.829 3.5-1 5.497 5.329 11.164 10.496 17 15.5 6.179 4.03 12.179 8.196 18 12.5 1.001 1.289 0.834 2.622-0.5 4-0.333-0.667-0.667-1.333-1-2-1 0.333-2 0.667-3 1-0.333-1-0.667-2-1-3-1 1.333-2 1.333-3 0-3.086 2.471-2.586 4.137 1.5 5-1.478-0.262-2.811 0.071-4 1-0.688 1.355-1.688 2.355-3 3 0.065-0.438-0.101-0.772-0.5-1-1.385 1.051-2.385 2.384-3 4-1.129-2.016-1.962-3.682-2.5-5-0.692 0.525-1.192 1.192-1.5 2-0.689-0.857-1.522-1.523-2.5-2-1.098 1.115-2.265 1.115-3.5 0-1.261 0.259-2.261 0.926-3 2-1.418-1.863-3.251-2.363-5.5-1.5l1 1c-1.877 1.185-3.877 2.185-6 3 1.196 0.654 1.196 1.154 0 1.5-1.114-1.223-1.281-2.556-0.5-4 1.073 0.78 2.24 0.613 3.5-0.5-1.59-1.046-3.09-2.213-4.5-3.5-1.113 1.211-2.28 1.211-3.5 0-1.438 3.323-3.271 3.656-5.5 1-0.374 0.916-0.874 1.75-1.5 2.5 0.808 0.308 1.475 0.808 2 1.5-1.529 1.263-3.195 2.263-5 3h-18c-11.94-12.608-21.94-26.608-30-42z" fill="#f9b0d9"/>
  <path d="m512.5 622.5c0.873 20.673 1.873 41.34 3 62 1.497 15.982 5.164 31.316 11 46 0.333 1.333 0.667 2.667 1 4-1.325-1.453-2.158-1.119-2.5 1-1.756-0.921-1.923-2.088-0.5-3.5-0.51-1.826-1.344-1.993-2.5-0.5-0.72-1.612-0.554-3.112 0.5-4.5-0.626-0.75-1.126-1.584-1.5-2.5-0.249 1.124-0.749 2.124-1.5 3-0.333-0.167-0.667-0.333-1-0.5 0.76-1.441 1.426-2.941 2-4.5-1.391 0.391-2.391-0.442-3-2.5 0.581-0.893 0.915-1.893 1-3-1.218-3.022-2.051-5.855-2.5-8.5-1.016 1.134-1.683 0.801-2-1-0.273 1.601-0.773 3.101-1.5 4.5 0.116 1.268 0.449 2.602 1 4-1.365 1.682-2.865 1.849-4.5 0.5-0.833 2.5-2 2.667-3.5 0.5 1.172-0.419 2.172-1.085 3-2-0.949-0.617-1.782-0.451-2.5 0.5-0.667-1.333-1.333-2.667-2-4-0.667 1.333-1.667 2.333-3 3-0.684-1.979-0.184-3.646 1.5-5-1.47-1.982-1.136-3.648 1-5l-1-1c-1.665 1.756-2.665 3.923-3 6.5-0.63 1.31-1.63 2.144-3 2.5 2.984-20.401 3.651-40.735 2-61 0.319-4.863-0.014-9.53-1-14v-14c0.79 1.109 1.29 2.442 1.5 4 0.333-3 0.667-6 1-9l1.5 1.5c-1.102 2.401-1.269 4.901-0.5 7.5 0.219-1.438 0.719-2.771 1.5-4 1.797 1.631 2.964 3.631 3.5 6 0.247-2.935 0.913-5.935 2-9l1.5 1.5c-0.333 1-0.667 2-1 3 0.906 2.447 1.739 4.947 2.5 7.5 0.179-3.525 0.679-6.859 1.5-10z" fill="#31cdf7"/>
  <path d="m337.5 639.5c1.175-0.219 2.175 0.114 3 1 4.36 9.457 6.694 19.457 7 30v9c-5.17 16.274-12.004 31.941-20.5 47-5.234 6.903-11.401 12.736-18.5 17.5-11.198 2.114-17.031-2.386-17.5-13.5 1.095-1.193 1.928-2.527 2.5-4 19.35-21.367 31.85-46.367 37.5-75 1.91-4.155 4.077-8.155 6.5-12z" fill="#32b1ee"/>
  <path d="m672.5 642.5c1.175-0.219 2.175 0.114 3 1 5.441 8.629 9.274 17.963 11.5 28 3.86 7.059 7.693 14.059 11.5 21 8.479 13.323 18.312 25.657 29.5 37 1.059 11.916-4.441 16.416-16.5 13.5-8.079-4.744-14.912-10.91-20.5-18.5-8.124-11.587-14.624-23.921-19.5-37-1.582-6.887-2.248-13.887-2-21v-8c0.992-5.206 1.992-10.539 3-16z" fill="#33b0ee"/>
  <path d="m413.5 651.5c3.302 13.877 5.969 27.877 8 42 1.8 15.138 0.966 30.138-2.5 45-0.705 2.976-1.871 5.642-3.5 8 0.086-0.996-0.248-1.829-1-2.5 0.808-0.308 1.475-0.808 2-1.5-0.689-1.944-1.189-3.944-1.5-6-0.654 1.196-1.154 1.196-1.5 0 1.187-1.019 2.187-2.186 3-3.5-1.504-1.491-2.337-3.324-2.5-5.5-1.163 1.785-1.83 3.785-2 6-0.483-0.948-0.649-1.948-0.5-3-2.573 0.719-5.073 1.719-7.5 3 0.282-4.237 1.448-8.237 3.5-12-0.228-1.707-0.562-3.374-1-5 0.907-6.347 1.907-12.68 3-19 1.579-14.618 2.245-29.285 2-44-0.157-1.373 0.01-2.707 0.5-4 0.278 0.916 0.778 1.582 1.5 2z" fill="#eb7ab8"/>
  <path d="m222.5 698.5c0.219 1.175-0.114 2.175-1 3-2.45 1.211-4.45 2.878-6 5 1.337 0.24 3.003 0.74 5 1.5-1.196 0.654-1.196 1.154 0 1.5 0.751-0.876 1.251-1.876 1.5-3 0.667 1.333 1.333 2.667 2 4-0.123-1.95 0.877-3.617 3-5 0.615 1.616 1.615 2.949 3 4 0.691-2.391 1.691-2.391 3 0 1.797-2.596 3.131-2.263 4 1 0.333-1 0.667-2 1-3 0.667 2.667 1.333 2.667 2 0 0.471 1.746 1.138 3.413 2 5 1.221-3.627 2.888-3.627 5 0 1.218-1.519 2.718-2.686 4.5-3.5-0.951-0.718-1.117-1.551-0.5-2.5 1.29 2.292 2.957 4.292 5 6 0.617-0.949 0.451-1.782-0.5-2.5 1.172-0.353 2.338-0.187 3.5 0.5 0.945-0.405 1.612-1.072 2-2 1.016 1.134 1.683 0.801 2-1 0.347 1.68 1.347 2.68 3 3 1.168-1.009 2.335-2.009 3.5-3 1.895 1.473 3.561 3.14 5 5 1.104-1.131 0.771-1.965-1-2.5 1.146-0.645 2.146-1.478 3-2.5 1.15 2.437 2.15 4.77 3 7 0.692-0.525 1.192-1.192 1.5-2l1 1c0.667-1.333 1.333-2.667 2-4 0.383 0.556 0.883 0.889 1.5 1-1.575 3.578-3.575 6.911-6 10-6.077-0.304-12.077 0.196-18 1.5-13.095 8.099-26.429 15.765-40 23-8.175 2.085-16.175 4.751-24 8-5.9 1.761-11.9 3.095-18 4-14.872 2.779-28.539 0.112-41-8-8.961-7.466-10.128-15.966-3.5-25.5 8.275-9.145 18.441-12.812 30.5-11 1.475 1.91 3.475 3.076 6 3.5 5 0.667 10 0.667 15 0 13.232-3.45 25.232-9.283 36-17.5z" fill="#f9a7d2"/>
  <path d="m347.5 670.5c0.826 4.816 1.326 9.816 1.5 15 0.21-1.558 0.71-2.891 1.5-4-0.882 5.631 1.118 7.131 6 4.5-2.429-0.451-2.596-1.285-0.5-2.5 0.98 1.559 1.813 3.226 2.5 5 0.828 0.915 1.828 1.581 3 2 2.17 0.228 4.504 0.228 7 0 1.505 2.631 2.171 2.297 2-1 1.052-0.149 2.052 0.017 3 0.5-2.378 0.974-2.044 1.641 1 2l-1 1c0.948 0.483 1.948 0.649 3 0.5-0.219-1.175 0.114-2.175 1-3 1.467 1.195 2.967 1.195 4.5 0 0.945 0.405 1.612 1.072 2 2 2.529-1.384 4.862-3.051 7-5 0.415 1.791 1.415 3.124 3 4 0.582-3.168 1.582-3.501 3-1 1-2.667 2-2.667 3 0 0.605-1.981 1.605-2.315 3-1 2.543-1.376 2.709-2.543 0.5-3.5 0.792-2.336 2.125-2.836 4-1.5 0.667 4.482 1.334 8.816 2 13-1.093 6.32-2.093 12.653-3 19-2.589 8.764-5.589 17.431-9 26-1.175 0.219-2.175-0.114-3-1-1.815-3.709-3.649-6.709-5.5-9 2e-3 3.025-1.165 5.525-3.5 7.5-1.288 0.239-2.288-0.261-3-1.5 5.795-7.522 7.295-15.855 4.5-25-2.955-3.777-6.788-4.943-11.5-3.5-2.858 1.694-5.191 3.861-7 6.5 0.039-1.256-0.461-2.256-1.5-3-0.273 1.829-1.107 3.329-2.5 4.5 1.076 1.726 1.243 3.559 0.5 5.5-1.636-1.704-3.469-3.204-5.5-4.5 2.779-0.149 3.279-0.983 1.5-2.5l-1 1c-1.996-0.496-3.663-1.496-5-3-0.974 2.378-1.641 2.044-2-1-1.101 1.894-2.434 2.561-4 2-1.193 1.478-1.693 2.812-1.5 4-1.205-1.077-1.872-2.41-2-4 1.62-11.931 2.287-23.931 2-36v-9z" fill="#f9b5dc"/>
  <path d="m382.5 738.5c-2.234 0.947-4.568 1.614-7 2-2.412 0.094-4.245-0.906-5.5-3-4.134-6.714-4.634-13.714-1.5-21 1.809-2.639 4.142-4.806 7-6.5 4.712-1.443 8.545-0.277 11.5 3.5 2.795 9.145 1.295 17.478-4.5 25z" fill="#f9f7f9"/>
  <path d="m479.5 719.5c0.011 1.517 0.677 2.684 2 3.5-1.625 0.853-1.958 1.853-1 3-0.831 4.788-1.664 9.621-2.5 14.5-1.445 5.268-3.279 10.435-5.5 15.5 0.165 1.117 0.498 2.284 1 3.5-2.631 1.505-2.297 2.171 1 2-7.906 13.407-19.24 22.573-34 27.5-4.333 0.667-8.667 0.667-13 0-5.525-2.919-7.358-7.419-5.5-13.5 3.421-6.51 6.588-13.177 9.5-20 7.612-17.748 10.945-36.415 10-56 2.63 3.263 4.963 3.263 7 0-0.667-0.333-1.333-0.667-2-1 1.85-0.742 2.516-1.742 2-3 1.09 1.227 2.424 2.06 4 2.5-0.667 0.333-1.333 0.667-2 1 1.167 0.5 2 1.333 2.5 2.5 0.725-1.658 1.892-2.158 3.5-1.5 0.176 1.692 0.676 3.192 1.5 4.5 2.684-0.568 5.184-1.568 7.5-3-0.237 2.854 0.429 5.187 2 7 1.705-1.803 3.538-2.469 5.5-2 1.316 2.528 2.483 2.528 3.5 0 1.503 1.09 1.836 2.257 1 3.5 0.632 3.27 1.299 6.437 2 9.5z" fill="#baf2f9"/>
  <path d="m347.5 679.5c0.287 12.069-0.38 24.069-2 36-2.501 7.657-5.334 15.323-8.5 23-5.447 9.802-13.281 16.968-23.5 21.5-5.667 0.667-11.333 0.667-17 0-3.34-1.003-6.34-2.503-9-4.5 0.086-0.996-0.248-1.829-1-2.5-4.04-2.694-7.707-5.861-11-9.5-1.131-1.574-1.298-3.241-0.5-5 1.016-1.134 1.683-0.801 2 1 0.827-1.162 1.66-2.329 2.5-3.5-0.167-0.5-0.333-1-0.5-1.5-0.689 0.857-1.522 1.523-2.5 2-1.239-1.507-0.905-2.674 1-3.5l-3-1.5c-0.38 1.521-0.546 3.187-0.5 5-1.255-0.711-2.421-1.544-3.5-2.5 0.667-0.333 1.333-0.667 2-1-2.528-1.316-2.528-2.483 0-3.5-1.262-2.78-0.262-4.446 3-5-0.774-1.211-1.607-1.211-2.5 0-0.483-0.948-0.649-1.948-0.5-3 2.715 1.576 5.048 1.242 7-1 2.425-3.089 4.425-6.422 6-10 5.583-6.153 9.916-13.153 13-21 0.667-0.333 1.333-0.667 2-1-1.172 2.344-1.172 4.677 0 7-1.86 2.26-1.86 4.76 0 7.5l-1.5 1.5c-2.482-2.445-4.982-2.279-7.5 0.5 1.933 0.783 3.433 0.283 4.5-1.5 1.985 2.671 3.485 5.171 4.5 7.5-0.808 0.308-1.475 0.808-2 1.5 1.181 1.698 1.181 3.365 0 5-1.85 2.018-3.85 3.851-6 5.5 0.837 1.011 1.17 2.178 1 3.5-0.572 1.473-1.405 2.807-2.5 4 0.469 11.114 6.302 15.614 17.5 13.5 7.099-4.764 13.266-10.597 18.5-17.5 8.496-15.059 15.33-30.726 20.5-47z" fill="#f07cb5"/>
  <path d="m694.5 648.5c1.37 1.75 2.37 3.75 3 6 3.808 8.95 8.142 17.617 13 26 8.06 15.392 18.06 29.392 30 42-1.03 1.32-2.03 2.82-3 4.5 1.887 0.163 3.387-0.671 4.5-2.5 0.723 2.72 2.223 4.887 4.5 6.5-1.801 0.317-2.134 0.984-1 2-0.813 1.314-1.813 2.481-3 3.5 1.617 0.169 3.284 0.503 5 1-0.54 1.248-1.207 2.415-2 3.5l1 1c-3.198 0.957-4.198 2.791-3 5.5-12.766 15.737-27.766 18.237-45 7.5-5.605-5.097-10.605-10.597-15-16.5-3.87-7.745-7.204-15.745-10-24-0.889-7.671-1.889-15.338-3-23 0.011-1.545 0.344-2.878 1-4 4.876 13.079 11.376 25.413 19.5 37 5.588 7.59 12.421 13.756 20.5 18.5 12.059 2.916 17.559-1.584 16.5-13.5-11.188-11.343-21.021-23.677-29.5-37 0.429-1.453 0.596-3.119 0.5-5 1.131 1.104 1.965 0.771 2.5-1-0.851-3.112-2.017-3.446-3.5-1-0.167-0.5-0.333-1-0.5-1.5 2.215-3.275 1.881-6.441-1-9.5l2-2c-0.502-1.021-1.168-1.188-2-0.5-0.547 0.925-1.213 1.758-2 2.5-1.839-2.027-2.339-4.36-1.5-7 0.388 0.928 1.055 1.595 2 2 1.533-1.195 3.033-1.195 4.5 0 1.231-1.151 1.231-2.317 0-3.5-1.601-0.273-3.101-0.773-4.5-1.5-1.11 1.537-2.61 2.203-4.5 2 0.593-3.345 1.26-6.345 2-9-0.525-0.692-1.192-1.192-2-1.5 2.193 0.57 4.193 0.236 6-1-1.516-1.897-2.183-4.064-2-6.5z" fill="#f07db5"/>
  <path d="m211.5 723.5h4c0.667 4-1 5.667-5 5-0.134-1.792 0.199-3.458 1-5z" fill="#f9f2f8"/>
  <path d="m190.5 731.5c4.993 0.497 5.993 2.664 3 6.5-5.352 0.175-6.352-1.991-3-6.5z" fill="#f8f5f8"/>
  <path d="m615.5 769.5c-4.121-10.304-8.954-20.304-14.5-30-2.079-4.152-3.579-8.486-4.5-13 1.235-1.517 1.235-3.184 0-5 1.49-1.326 2.824-2.826 4-4.5-1.218-1.438-1.885-3.105-2-5 0.877-2.117 1.044-4.284 0.5-6.5l1 1c0.333-1 0.667-2 1-3 1.646 1.555 1.979 3.221 1 5 0.689-0.857 1.522-1.523 2.5-2 1.362 1.512 1.696 3.012 1 4.5 0.948 0.483 1.948 0.649 3 0.5 0.203-1.89-0.463-3.39-2-4.5 0.935-2.381 1.268-4.881 1-7.5 0.838 0.342 1.172 1.008 1 2 1.957 14.889 6.957 28.556 15 41 18.371 38.693 49.038 57.193 92 55.5 16.118-2.816 30.285-9.649 42.5-20.5 7.361-9.357 8.361-19.357 3-30-6.096-5.161-11.93-5.161-17.5 0-1.198-2.709-0.198-4.543 3-5.5l-1-1c0.793-1.085 1.46-2.252 2-3.5-1.716-0.497-3.383-0.831-5-1 1.187-1.019 2.187-2.186 3-3.5-1.134-1.016-0.801-1.683 1-2-2.277-1.613-3.777-3.78-4.5-6.5-1.113 1.829-2.613 2.663-4.5 2.5 0.97-1.68 1.97-3.18 3-4.5h18c9.335 5.804 18.335 12.304 27 19.5 13.738 7.806 28.405 13.473 44 17 17.401 3.235 33.401 0.068 48-9.5 11.374-14.55 8.707-26.05-8-34.5-5.307-1.5-10.641-2.666-16-3.5 9e-3 -1.808-0.491-3.475-1.5-5-3.761-6.375-8.928-11.208-15.5-14.5-9.341-3.05-18.341-6.55-27-10.5 18.298 0.14 36.298-2.026 54-6.5 15.212-4.422 28.212-12.255 39-23.5 19.118-21.799 27.118-47.132 24-76 0.036-4.56-1.298-8.56-4-12-4.298-11.462-12.465-18.462-24.5-21-2.221-0.107-4.054 0.56-5.5 2v1c-2.214 0.892-3.214 2.558-3 5 1.233 3.748 2.733 7.414 4.5 11 1.661 11.337-3.172 16.504-14.5 15.5-0.415-2.026-1.415-3.526-3-4.5-3.001-7.178-4.668-14.678-5-22.5 3.332-22.848 16.332-31.515 39-26 17.013 9.023 28.18 22.856 33.5 41.5 7.085 46.991-8.749 84.157-47.5 111.5-13.1 7.444-27.1 12.444-42 15 10.258 3.201 20.258 7.201 30 12 20.795 13.729 24.628 31.229 11.5 52.5-17.51 19.394-39.343 26.894-65.5 22.5-16.202-2.178-31.369-7.345-45.5-15.5-2.238 11.978-7.738 22.145-16.5 30.5-26.997 22.413-57.663 29.413-92 21-25.625-8.132-45.959-23.299-61-45.5z" fill="#f182b1"/>
  <path d="m608.5 701.5c1.256-0.039 2.256 0.461 3 1.5-0.444 1.533-0.777 3.033-1 4.5 0.774 1.211 1.607 1.211 2.5 0 0.333 1 0.667 2 1 3 0.991-1.439 2.324-2.439 4-3 2.625 0.782 5.292 1.782 8 3 1.812 7e-3 3.312-0.66 4.5-2 0.333 0.5 0.667 1 1 1.5-1.127 1.057-1.627 2.223-1.5 3.5 1.734-0.749 3.567-1.249 5.5-1.5l-1-1c2.078-2.134 3.912-1.968 5.5 0.5 0.333-0.667 0.667-1.333 1-2 1.333 1.333 2.667 1.333 4 0 0.167 0.333 0.333 0.667 0.5 1-1.128 0.762-2.295 1.429-3.5 2-0.667 0.667-0.667 1.333 0 2 2.071-0.864 3.738-2.197 5-4 0.374 0.916 0.874 1.75 1.5 2.5-2.164 4.121-2.497 8.288-1 12.5 1.866 6.048 5.199 11.215 10 15.5 4.418 1.419 7.751 0.252 10-3.5 0.617-0.111 1.117-0.444 1.5-1 0.804-5.251 0.637-10.418-0.5-15.5 1.574-0.353 3.241-1.02 5-2-0.29-1.478-0.29-2.978 0-4.5 2.796 8.255 6.13 16.255 10 24-0.487 0.973-0.987 1.973-1.5 3-0.615-1.616-1.615-2.949-3-4-2.096 1.215-1.929 2.049 0.5 2.5-1.333 0.333-2.667 0.667-4 1 1.388 0.889 1.222 1.389-0.5 1.5-1.637-1.615-3.471-2.949-5.5-4-1.835 1.661-3.835 3.161-6 4.5 0.753 1.487 1.586 1.654 2.5 0.5 2.082 2.152 1.916 2.819-0.5 2-2.208 0.306-3.708 1.306-4.5 3-1.338-1.006-2.671-2.006-4-3l-1 1c-0.333-1.333-0.667-2.667-1-4-2.303-0.091-3.97 1.243-5 4-1.333-0.667-2.333-1.667-3-3l-3 3c-0.974-2.378-1.641-2.044-2 1-0.359-3.044-1.026-3.378-2-1-0.868-3.545-2.368-4.211-4.5-2-1.333-0.667-2.667-1.333-4-2-2.733-0.033-5.399-0.033-8 0-8.043-12.444-13.043-26.111-15-41z" fill="#f9b0d8"/>
  <path d="m667.5 737.5c-2.249 3.752-5.582 4.919-10 3.5-4.801-4.285-8.134-9.452-10-15.5-1.511-12.015 3.155-15.849 14-11.5 6.714 6.574 8.714 14.407 6 23.5z" fill="#f9f8f9"/>
  <path d="m814.5 709.5c4.968 1.813 9.968 3.646 15 5.5 8.699 2.892 16.699 1.725 24-3.5 5.359 0.834 10.693 2 16 3.5 16.707 8.45 19.374 19.95 8 34.5-14.599 9.568-30.599 12.735-48 9.5-15.595-3.527-30.262-9.194-44-17-8.665-7.196-17.665-13.696-27-19.5 1.805-0.737 3.471-1.737 5-3-0.525-0.692-1.192-1.192-2-1.5 0.626-0.75 1.126-1.584 1.5-2.5 2.229 2.656 4.062 2.323 5.5-1 1.22 1.211 2.387 1.211 3.5 0 1.41 1.287 2.91 2.454 4.5 3.5-1.26 1.113-2.427 1.28-3.5 0.5-0.781 1.444-0.614 2.777 0.5 4 1.196-0.346 1.196-0.846 0-1.5 2.123-0.815 4.123-1.815 6-3l-1-1c2.249-0.863 4.082-0.363 5.5 1.5 0.739-1.074 1.739-1.741 3-2 1.235 1.115 2.402 1.115 3.5 0 0.978 0.477 1.811 1.143 2.5 2 0.308-0.808 0.808-1.475 1.5-2 0.538 1.318 1.371 2.984 2.5 5 0.615-1.616 1.615-2.949 3-4 0.399 0.228 0.565 0.562 0.5 1-0.163 2.357 3e-3 4.69 0.5 7l6.5 6.5c3.875 1.52 7.875 1.854 12 1 3.359-6.131 2.026-11.131-4-15-2.571-1.454-5.238-2.62-8-3.5-4.086-0.863-4.586-2.529-1.5-5 1 1.333 2 1.333 3 0 0.333 1 0.667 2 1 3 1-0.333 2-0.667 3-1 0.333 0.667 0.667 1.333 1 2 1.334-1.378 1.501-2.711 0.5-4z" fill="#f9a7d1"/>
  <path d="m831.5 731.5c4.514 0.193 5.847 2.36 4 6.5-4.709 0.082-6.042-2.085-4-6.5z" fill="#f8f0f6"/>
  <path d="m807.5 714.5c2.762 0.88 5.429 2.046 8 3.5 6.026 3.869 7.359 8.869 4 15-4.125 0.854-8.125 0.52-12-1l-6.5-6.5c-0.497-2.31-0.663-4.643-0.5-7 1.312-0.645 2.312-1.645 3-3 1.189-0.929 2.522-1.262 4-1z" fill="#f9f7f9"/>
  <path d="m922.5 563.5c-3.875-4.562-7.875-9.062-12-13.5-5.676-3.08-11.676-4.914-18-5.5 1.446-1.44 3.279-2.107 5.5-2 12.035 2.538 20.202 9.538 24.5 21z" fill="#d9c4df"/>
  <path d="m421.5 693.5c1.487 3.046 2.487 6.379 3 10 0.567-2.712 0.901-5.379 1-8 2.481 3.803 2.147 7.47-1 11 0.207 2.896 0.373 5.896 0.5 9 0.118-2.073 1.118-3.407 3-4 1.333 1.333 2.667 1.333 4 0 1.169 0.509 2.002 1.342 2.5 2.5-1.244 0.456-2.077-0.044-2.5-1.5-0.309 1.266-0.809 2.433-1.5 3.5 1.625 0.853 1.958 1.853 1 3 2.597 2.317 3.43 5.15 2.5 8.5-0.29-1.544-0.956-2.877-2-4-1.445 2.112-1.278 4.278 0.5 6.5-0.667 0.333-1.333 0.667-2 1 0.789 3.097 1.956 3.264 3.5 0.5 0.914-3.642 1.748-7.308 2.5-11 0.882 1.26 1.882 2.426 3 3.5-2.143 2.758-3.31 5.924-3.5 9.5-1.079 1.894-2.413 2.227-4 1-0.309 1.266-0.809 2.433-1.5 3.5 1.049 0.492 2.049 0.326 3-0.5 0.333 0.833 0.667 1.667 1 2.5-0.875 5.144-1.875 10.311-3 15.5-2.912 6.823-6.079 13.49-9.5 20-1.858 6.081-0.025 10.581 5.5 13.5 4.333 0.667 8.667 0.667 13 0 14.76-4.927 26.094-14.093 34-27.5 11.387-14.447 18.721-30.78 22-49 1.37-0.356 2.37-1.19 3-2.5 0.335-2.577 1.335-4.744 3-6.5l1 1c-2.136 1.352-2.47 3.018-1 5-1.684 1.354-2.184 3.021-1.5 5 1.333-0.667 2.333-1.667 3-3 0.667 1.333 1.333 2.667 2 4 0.718-0.951 1.551-1.117 2.5-0.5-0.828 0.915-1.828 1.581-3 2 1.5 2.167 2.667 2 3.5-0.5 1.635 1.349 3.135 1.182 4.5-0.5-0.551-1.398-0.884-2.732-1-4 0.727-1.399 1.227-2.899 1.5-4.5 0.317 1.801 0.984 2.134 2 1 0.449 2.645 1.282 5.478 2.5 8.5-0.085 1.107-0.419 2.107-1 3 0.609 2.058 1.609 2.891 3 2.5-0.574 1.559-1.24 3.059-2 4.5 0.333 0.167 0.667 0.333 1 0.5 0.751-0.876 1.251-1.876 1.5-3 0.374 0.916 0.874 1.75 1.5 2.5-1.054 1.388-1.22 2.888-0.5 4.5 1.156-1.493 1.99-1.326 2.5 0.5-1.423 1.412-1.256 2.579 0.5 3.5 0.342-2.119 1.175-2.453 2.5-1 5.763 11.198 12.763 21.532 21 31 5.812 7.978 12.812 14.811 21 20.5 7.011 3.928 14.345 4.928 22 3 3.759-3.743 4.926-8.243 3.5-13.5-3.853-9.698-7.686-19.365-11.5-29 1.058 1.1 1.892 2.434 2.5 4 0.167-0.5 0.333-1 0.5-1.5-2.362-6.521-4.362-12.854-6-19 1.243-1.154 2.243-2.488 3-4-0.78-1.073-0.613-2.24 0.5-3.5 0.333 1.667 0.667 3.333 1 5 2.465-1.555 2.965-3.555 1.5-6 1.49-1.326 2.824-2.826 4-4.5-0.14-1.264-0.14-2.431 0-3.5 2.469 3.402 2.135 6.569-1 9.5 1.167 0.5 2 1.333 2.5 2.5 1.015-3.94 1.515-7.94 1.5-12 1.108 4.192 2.108 8.525 3 13 0.921 4.514 2.421 8.848 4.5 13 5.546 9.696 10.379 19.696 14.5 30 4.018 27.811-7.982 41.978-36 42.5-10.313-2.071-19.647-6.238-28-12.5-7.999-5.833-14.833-12.833-20.5-21-8.383-13.432-15.716-27.432-22-42-8.306 25.485-22.806 46.818-43.5 64-12.034 8.287-25.368 11.787-40 10.5-19.36-6.86-27.026-20.36-23-40.5 1.888-4.06 4.388-7.726 7.5-11 2.397-4.124 4.231-8.457 5.5-13 1.629-2.358 2.795-5.024 3.5-8 3.466-14.862 4.3-29.862 2.5-45z" fill="#29c6f6"/>
  <path d="m368.5 716.5c-3.134 7.286-2.634 14.286 1.5 21 1.255 2.094 3.088 3.094 5.5 3 2.432-0.386 4.766-1.053 7-2 0.712 1.239 1.712 1.739 3 1.5 2.335-1.975 3.502-4.475 3.5-7.5 1.851 2.291 3.685 5.291 5.5 9 0.825 0.886 1.825 1.219 3 1-2.169 4.338-4.336 8.671-6.5 13-8.373 10.583-17.539 20.416-27.5 29.5-18.012 12.674-38.012 17.674-60 15-17.506-1.269-32.006-8.436-43.5-21.5-6.438-7.548-8.771-16.214-7-26 2.448-7.812 7.614-11.646 15.5-11.5 6.228 5.073 12.562 9.907 19 14.5 2.66 1.997 5.66 3.497 9 4.5 5.667 0.667 11.333 0.667 17 0 10.219-4.532 18.053-11.698 23.5-21.5 3.166-7.677 5.999-15.343 8.5-23 0.128 1.59 0.795 2.923 2 4-0.193-1.188 0.307-2.522 1.5-4 1.566 0.561 2.899-0.106 4-2 0.359 3.044 1.026 3.378 2 1 1.337 1.504 3.004 2.504 5 3l1-1c1.779 1.517 1.279 2.351-1.5 2.5 2.031 1.296 3.864 2.796 5.5 4.5 0.743-1.941 0.576-3.774-0.5-5.5 1.393-1.171 2.227-2.671 2.5-4.5 1.039 0.744 1.539 1.744 1.5 3z" fill="#f9a7d0"/>
  <path d="m683.5 738.5c4.395 5.903 9.395 11.403 15 16.5 17.234 10.737 32.234 8.237 45-7.5 5.57-5.161 11.404-5.161 17.5 0 5.361 10.643 4.361 20.643-3 30-12.215 10.851-26.382 17.684-42.5 20.5-42.962 1.693-73.629-16.807-92-55.5 2.601-0.033 5.267-0.033 8 0 1.333 0.667 2.667 1.333 4 2 2.132-2.211 3.632-1.545 4.5 2 0.974-2.378 1.641-2.044 2 1 0.359-3.044 1.026-3.378 2-1l3-3c0.667 1.333 1.667 2.333 3 3 1.03-2.757 2.697-4.091 5-4 0.333 1.333 0.667 2.667 1 4l1-1c1.329 0.994 2.662 1.994 4 3 0.792-1.694 2.292-2.694 4.5-3 2.416 0.819 2.582 0.152 0.5-2-0.914 1.154-1.747 0.987-2.5-0.5 2.165-1.339 4.165-2.839 6-4.5 2.029 1.051 3.863 2.385 5.5 4 1.722-0.111 1.888-0.611 0.5-1.5 1.333-0.333 2.667-0.667 4-1-2.429-0.451-2.596-1.285-0.5-2.5 1.385 1.051 2.385 2.384 3 4 0.513-1.027 1.013-2.027 1.5-3z" fill="#f9a7d0"/>
  <path d="m652.5 752.5c4.729 0.55 6.396 3.05 5 7.5-5.207 0.117-6.874-2.383-5-7.5z" fill="#f8f1f6"/>
  <path d="m573.5 706.5c0.537 14.15 3.871 27.484 10 40 3.814 9.635 7.647 19.302 11.5 29 1.426 5.257 0.259 9.757-3.5 13.5-7.655 1.928-14.989 0.928-22-3-8.188-5.689-15.188-12.522-21-20.5 0.591-0.651 1.257-1.318 2-2-6.839-11.085-10.173-22.918-10-35.5 0.916-0.374 1.75-0.874 2.5-1.5 1.268 0.116 2.602 0.449 4 1 0.419-1.172 1.085-2.172 2-3 1.193 2.105 2.86 3.772 5 5 1.552-1.466 3.386-2.466 5.5-3 1.231-1.151 1.231-2.317 0-3.5l1.5-1.5c1.813 1.109 2.646 0.442 2.5-2 2.921 0.354 5.254-0.646 7-3 1.211 0.774 1.211 1.607 0 2.5 1.135 0.749 2.135 0.583 3-0.5-1.296-4.131-1.296-8.131 0-12z" fill="#b7f1f9"/>
  <path d="m294.5 769.5c6.689 0.576 8.355 3.743 5 9.5-4.533 1.471-6.867-0.196-7-5 0.019-1.833 0.685-3.333 2-4.5z" fill="#f9f6f9"/>
  <path d="m551.5 799.5c0.935 7.296-1.732 12.796-8 16.5-9.447 2.129-16.614 7.296-21.5 15.5-1.667 4.333-3.333 8.667-5 13-6.308 4.521-11.975 3.855-17-2-3.373-7.361-7.539-14.194-12.5-20.5-6.599-3.428-13.099-6.928-19.5-10.5-2.078-3.37-2.911-7.037-2.5-11 20.694-17.182 35.194-38.515 43.5-64 6.284 14.568 13.617 28.568 22 42 5.667 8.167 12.501 15.167 20.5 21z" fill="#f095b3"/>
  <path d="m507.5 773.5c1.29 0.558 2.123 1.558 2.5 3 2.713 12.706 9.879 21.872 21.5 27.5-5.73 3.062-10.897 6.896-15.5 11.5-2.596 4.956-5.096 9.956-7.5 15-4.057-13.557-12.724-22.723-26-27.5 13.494-5.336 21.827-15.17 25-29.5z" fill="#f9f7f8"/>
 </g>
</svg>
